G04 Layer: BottomSilkLayer*
G04 EasyEDA v6.4.0, 2020-07-14T23:16:01--5:00*
G04 6dc5d916f8a9456ea10d5ff2c879efc5,9df6f537d2f94b3ba0ed850023b5714d,10*
G04 Gerber Generator version 0.2*
G04 Scale: 100 percent, Rotated: No, Reflected: No *
G04 Dimensions in millimeters *
G04 leading zeros omitted , absolute positions ,3 integer and 3 decimal *
%FSLAX33Y33*%
%MOMM*%
G90*
G71D02*

%ADD10C,0.254000*%
%ADD18C,0.152400*%

%LPD*%
G54D10*
G01X57899Y49960D02*
G01X57899Y55040D01*
G01X7099Y55040D01*
G01X7099Y49960D01*
G01X57899Y49960D01*
G01X57899Y52500D02*
G01X55359Y52500D01*
G01X55359Y49960D01*
G54D18*
G01X29560Y49253D02*
G01X29612Y49357D01*
G01X29716Y49461D01*
G01X29820Y49513D01*
G01X30028Y49513D01*
G01X30132Y49461D01*
G01X30236Y49357D01*
G01X30288Y49253D01*
G01X30339Y49097D01*
G01X30339Y48838D01*
G01X30288Y48682D01*
G01X30236Y48578D01*
G01X30132Y48474D01*
G01X30028Y48422D01*
G01X29820Y48422D01*
G01X29716Y48474D01*
G01X29612Y48578D01*
G01X29560Y48682D01*
G01X29560Y48838D01*
G01X29820Y48838D02*
G01X29560Y48838D01*
G01X29217Y49513D02*
G01X29217Y48422D01*
G01X29217Y49513D02*
G01X28750Y49513D01*
G01X28594Y49461D01*
G01X28542Y49409D01*
G01X28490Y49305D01*
G01X28490Y49149D01*
G01X28542Y49045D01*
G01X28594Y48993D01*
G01X28750Y48941D01*
G01X29217Y48941D01*
G01X28147Y49513D02*
G01X28147Y48422D01*
G01X27492Y49513D02*
G01X27596Y49461D01*
G01X27700Y49357D01*
G01X27752Y49253D01*
G01X27804Y49097D01*
G01X27804Y48838D01*
G01X27752Y48682D01*
G01X27700Y48578D01*
G01X27596Y48474D01*
G01X27492Y48422D01*
G01X27285Y48422D01*
G01X27181Y48474D01*
G01X27077Y48578D01*
G01X27025Y48682D01*
G01X26973Y48838D01*
G01X26973Y49097D01*
G01X27025Y49253D01*
G01X27077Y49357D01*
G01X27181Y49461D01*
G01X27285Y49513D01*
G01X27492Y49513D01*
M00*
M02*
