;Layer: Drill NPTH
;EasyEDA v6.4.0, 2020-07-14T23:16:01--5:00
;6dc5d916f8a9456ea10d5ff2c879efc5,9df6f537d2f94b3ba0ed850023b5714d,10
;Gerber Generator version 0.2
M48
METRIC,LZ,000.000
;Holesize 1 = 1.301 METRIC
T01C1.301
;Holesize 2 = 2.751 METRIC
T02C2.751
%
G05
G90
T01
X+032500Y+017424
X+005500Y+043124
X+005500Y+034124
X+005500Y+025124
X+005500Y+016124
X+005500Y+007124
X+059500Y+043124
X+059500Y+034124
X+059500Y+025124
X+059500Y+016124
X+059500Y+007124
X+016875Y+005500
X+025875Y+005500
X+034875Y+005500
X+043875Y+005500
X+052875Y+005500
T02
X+061500Y+052499
X+061500Y+003500
X+003500Y+052499
X+003500Y+003500
M30
