M48
METRIC,LZ,000.000
;FILE_FORMAT=3:3
;TYPE=NON_PLATED
;Layer: Drill NPTH
;EasyEDA v6.4.25, 2022-04-08T13:20:52--5:00
;10
;Gerber Generator version 0.2
;Holesize 1 = 1.301 mm
T01C1.301
;Holesize 2 = 2.751 mm
T02C2.751
%
G05
G90
T01
X032500Y-038575
X005500Y-012875
X005500Y-021875
X005500Y-030875
X005500Y-039875
X005500Y-048875
X059500Y-012875
X059500Y-021875
X059500Y-030875
X059500Y-039875
X059500Y-048875
X016875Y-050500
X025875Y-050500
X034875Y-050500
X043875Y-050500
X052875Y-050500
T02
X061500Y-003500
X061500Y-052500
X003500Y-003500
X003500Y-052500
M30
