G04 Layer: BottomLayer*
G04 EasyEDA v6.4.25, 2022-04-08T13:20:52--5:00*
G04 Gerber Generator version 0.2*
G04 Scale: 100 percent, Rotated: No, Reflected: No *
G04 Dimensions in millimeters *
G04 leading zeros omitted , absolute positions ,4 integer and 5 decimal *
%FSLAX45Y45*%
%MOMM*%

%ADD10C,0.2540*%
%ADD12C,0.6096*%
%ADD13R,1.8000X1.8000*%
%ADD14C,1.2000*%
%ADD15C,1.5240*%
%ADD16C,1.8000*%
%ADD17C,1.6000*%

%LPD*%
D10*
X1545081Y-4261865D02*
G01*
X2353056Y-4261865D01*
X2435097Y-4180077D01*
X3668999Y-2127001D02*
G01*
X3303000Y-2127001D01*
X3300001Y-2130000D01*
X1299972Y-1927097D02*
G01*
X1299972Y-2769107D01*
X1299997Y-2768983D02*
G01*
X1299997Y-3045007D01*
X2434991Y-4180001D01*
X3199993Y-1754997D02*
G01*
X3317996Y-1873001D01*
X3668999Y-1873001D01*
X3050031Y-1754631D02*
G01*
X3049993Y-1931995D01*
X2831000Y-2127001D01*
X2831084Y-2126995D01*
X3630929Y-223012D02*
G01*
X3757993Y-348000D01*
X3757993Y-659998D01*
X3999991Y-899921D01*
X3999991Y-1249934D01*
X3884929Y-1364995D01*
X3669029Y-1364995D01*
X3669035Y-1618995D02*
G01*
X3668044Y-1618005D01*
X3121990Y-1618005D01*
X3121913Y-1617979D02*
G01*
X3121992Y-2249995D01*
X2987995Y-2381994D01*
X2831084Y-2380995D01*
X3376929Y-477012D02*
G01*
X3377994Y-629998D01*
X3050001Y-940000D01*
X3050001Y-1754728D01*
X5950000Y-787527D02*
G01*
X5950000Y-774999D01*
X5850000Y-674999D01*
X5375000Y-674999D01*
X4939004Y-1110995D01*
X4431004Y-1110995D01*
X5950000Y-1687525D02*
G01*
X5950000Y-1675000D01*
X5774999Y-1499999D01*
X5375000Y-1499999D01*
X5239997Y-1364995D01*
X4431004Y-1364995D01*
X5949950Y-2587497D02*
G01*
X5949950Y-2575052D01*
X5774943Y-2400045D01*
X5525008Y-2400045D01*
X4743958Y-1618995D01*
X4431029Y-1618995D01*
X4787391Y-5050027D02*
G01*
X4750054Y-5050027D01*
X4599940Y-4899913D01*
X4599940Y-4525009D01*
X4750054Y-4374895D01*
X4750054Y-2525013D01*
X4606036Y-2380995D01*
X4431029Y-2380995D01*
X3887470Y-5050027D02*
G01*
X3887470Y-4987543D01*
X4625086Y-4249927D01*
X4625086Y-2724912D01*
X4534915Y-2634995D01*
X4431029Y-2634995D01*
X5950000Y-4387517D02*
G01*
X5950000Y-4375000D01*
X5800001Y-4225000D01*
X5149999Y-4225000D01*
X4874999Y-3949999D01*
X4874999Y-2350000D01*
X4651994Y-2126995D01*
X4431004Y-2126995D01*
X5949950Y-3487420D02*
G01*
X5949950Y-3474974D01*
X5875020Y-3400043D01*
X5150104Y-3400043D01*
X5025001Y-3274999D01*
X5025001Y-2200000D01*
X4697984Y-1872995D01*
X4431029Y-1872995D01*
X836929Y-223012D02*
G01*
X963929Y-350012D01*
X1167498Y-349999D01*
X1217498Y-399999D01*
X1217498Y-712497D01*
X1299972Y-785876D01*
X1299972Y-896873D01*
D13*
G01*
X2069007Y-1110995D03*
G01*
X2069007Y-1364995D03*
G01*
X2069007Y-2126995D03*
G01*
X2069007Y-2380995D03*
G01*
X2069007Y-1618995D03*
G01*
X2069007Y-1872995D03*
G01*
X2069007Y-2634995D03*
G01*
X2069007Y-2888995D03*
G01*
X2831007Y-2888995D03*
G01*
X2831007Y-2634995D03*
G01*
X2831007Y-2380995D03*
G01*
X2831007Y-2126995D03*
G01*
X2831007Y-1872995D03*
G01*
X2831007Y-1618995D03*
G01*
X2831007Y-1364995D03*
G01*
X2831007Y-1110995D03*
G01*
X4431004Y-2888995D03*
G01*
X4431004Y-2634995D03*
G01*
X4431004Y-1872995D03*
G01*
X4431004Y-1618995D03*
G01*
X4431004Y-2380995D03*
G01*
X4431004Y-2126995D03*
G01*
X4431004Y-1364995D03*
G01*
X4431004Y-1110995D03*
G01*
X3669004Y-1110995D03*
G01*
X3669004Y-1364995D03*
G01*
X3669004Y-1618995D03*
G01*
X3669004Y-1872995D03*
G01*
X3669004Y-2126995D03*
G01*
X3669004Y-2380995D03*
G01*
X3669004Y-2634995D03*
G01*
X3669004Y-2888995D03*
D14*
G01*
X4999939Y-3699992D03*
G01*
X5150053Y-3699992D03*
D15*
G01*
X1299997Y-1926996D03*
G01*
X1299997Y-896975D03*
G01*
X5253990Y-2861005D03*
G01*
X5253990Y-1830984D03*
G01*
X4224985Y-3210001D03*
G01*
X5255006Y-3210001D03*
G01*
X1299997Y-3799001D03*
G01*
X1299997Y-2768980D03*
D14*
G01*
X1394942Y-4261993D03*
G01*
X1545056Y-4261993D03*
D15*
G01*
X3960012Y-4345025D03*
G01*
X3960012Y-3314979D03*
G01*
X2434996Y-4180001D03*
G01*
X3465017Y-4180001D03*
G36*
X5752998Y-386999D02*
G01*
X5572998Y-386999D01*
X5572998Y-566999D01*
X5752998Y-566999D01*
G37*
D16*
G01*
X5663006Y-223012D03*
G01*
X5409006Y-477012D03*
G01*
X5409006Y-223012D03*
G01*
X5155006Y-477012D03*
G01*
X5155006Y-223012D03*
G01*
X4901006Y-477012D03*
G01*
X4901006Y-223012D03*
G01*
X4647006Y-477012D03*
G01*
X4647006Y-223012D03*
G01*
X4393006Y-477012D03*
G01*
X4393006Y-223012D03*
G01*
X4139006Y-477012D03*
G01*
X4139006Y-223012D03*
G01*
X3885006Y-477012D03*
G01*
X3885006Y-223012D03*
G01*
X3631006Y-477012D03*
G01*
X3631006Y-223012D03*
G01*
X3377006Y-477012D03*
G01*
X3377006Y-223012D03*
G01*
X3123006Y-477012D03*
G01*
X3123006Y-223012D03*
G01*
X2869006Y-477012D03*
G01*
X2869006Y-223012D03*
G01*
X2615006Y-477012D03*
G01*
X2615006Y-223012D03*
G01*
X2361006Y-477012D03*
G01*
X2361006Y-223012D03*
G01*
X2107006Y-477012D03*
G01*
X2107006Y-223012D03*
G01*
X1853006Y-477012D03*
G01*
X1853006Y-223012D03*
G01*
X1599006Y-477012D03*
G01*
X1599006Y-223012D03*
G01*
X1345006Y-477012D03*
G01*
X1345006Y-223012D03*
G01*
X1091006Y-477012D03*
G01*
X1091006Y-223012D03*
G01*
X837006Y-477012D03*
G01*
X837006Y-223012D03*
D12*
G01*
X3121990Y-1618005D03*
G01*
X3299993Y-2129993D03*
G01*
X3199993Y-1754987D03*
G01*
X3050006Y-1754733D03*
G01*
X3669995Y-3099993D03*
D17*
X3205007Y-3357524D02*
G01*
X3295007Y-3357524D01*
X2860014Y-3477503D02*
G01*
X2860014Y-3387506D01*
X3000019Y-3737518D02*
G01*
X3000019Y-3827515D01*
X3500018Y-3737518D02*
G01*
X3500018Y-3827515D01*
X3639997Y-3387506D02*
G01*
X3639997Y-3477503D01*
X505012Y-787527D02*
G01*
X595012Y-787527D01*
X160020Y-907508D02*
G01*
X160020Y-817509D01*
X300024Y-1167521D02*
G01*
X300024Y-1257520D01*
X800023Y-1167521D02*
G01*
X800023Y-1257520D01*
X940003Y-817509D02*
G01*
X940003Y-907508D01*
X505012Y-1687525D02*
G01*
X595012Y-1687525D01*
X160020Y-1807507D02*
G01*
X160020Y-1717507D01*
X300024Y-2067519D02*
G01*
X300024Y-2157519D01*
X800023Y-2067519D02*
G01*
X800023Y-2157519D01*
X940003Y-1717507D02*
G01*
X940003Y-1807507D01*
X505012Y-2587523D02*
G01*
X595012Y-2587523D01*
X160020Y-2707505D02*
G01*
X160020Y-2617505D01*
X300024Y-2967517D02*
G01*
X300024Y-3057517D01*
X800023Y-2967517D02*
G01*
X800023Y-3057517D01*
X940003Y-2617505D02*
G01*
X940003Y-2707505D01*
X505012Y-3487521D02*
G01*
X595012Y-3487521D01*
X160020Y-3607503D02*
G01*
X160020Y-3517503D01*
X300024Y-3867515D02*
G01*
X300024Y-3957515D01*
X800023Y-3867515D02*
G01*
X800023Y-3957515D01*
X940003Y-3517503D02*
G01*
X940003Y-3607503D01*
X505012Y-4387519D02*
G01*
X595012Y-4387519D01*
X160020Y-4507501D02*
G01*
X160020Y-4417501D01*
X300024Y-4767513D02*
G01*
X300024Y-4857513D01*
X800023Y-4767513D02*
G01*
X800023Y-4857513D01*
X940003Y-4417501D02*
G01*
X940003Y-4507501D01*
X5905002Y-787527D02*
G01*
X5995001Y-787527D01*
X5560009Y-907508D02*
G01*
X5560009Y-817509D01*
X5700013Y-1167521D02*
G01*
X5700013Y-1257520D01*
X6200013Y-1167521D02*
G01*
X6200013Y-1257520D01*
X6339992Y-817509D02*
G01*
X6339992Y-907508D01*
X5905002Y-1687525D02*
G01*
X5995001Y-1687525D01*
X5560009Y-1807507D02*
G01*
X5560009Y-1717507D01*
X5700013Y-2067519D02*
G01*
X5700013Y-2157519D01*
X6200013Y-2067519D02*
G01*
X6200013Y-2157519D01*
X6339992Y-1717507D02*
G01*
X6339992Y-1807507D01*
X5905002Y-2587523D02*
G01*
X5995001Y-2587523D01*
X5560009Y-2707505D02*
G01*
X5560009Y-2617505D01*
X5700013Y-2967517D02*
G01*
X5700013Y-3057517D01*
X6200013Y-2967517D02*
G01*
X6200013Y-3057517D01*
X6339992Y-2617505D02*
G01*
X6339992Y-2707505D01*
X5905002Y-3487521D02*
G01*
X5995001Y-3487521D01*
X5560009Y-3607503D02*
G01*
X5560009Y-3517503D01*
X5700013Y-3867515D02*
G01*
X5700013Y-3957515D01*
X6200013Y-3867515D02*
G01*
X6200013Y-3957515D01*
X6339992Y-3517503D02*
G01*
X6339992Y-3607503D01*
X5905002Y-4387519D02*
G01*
X5995001Y-4387519D01*
X5560009Y-4507501D02*
G01*
X5560009Y-4417501D01*
X5700013Y-4767513D02*
G01*
X5700013Y-4857513D01*
X6200013Y-4767513D02*
G01*
X6200013Y-4857513D01*
X6339992Y-4417501D02*
G01*
X6339992Y-4507501D01*
X1187526Y-5095003D02*
G01*
X1187526Y-5005003D01*
X1307505Y-5439994D02*
G01*
X1217508Y-5439994D01*
X1567520Y-5299989D02*
G01*
X1657517Y-5299989D01*
X1567520Y-4799990D02*
G01*
X1657517Y-4799990D01*
X1217508Y-4660011D02*
G01*
X1307505Y-4660011D01*
X2087524Y-5095003D02*
G01*
X2087524Y-5005003D01*
X2207503Y-5439994D02*
G01*
X2117506Y-5439994D01*
X2467518Y-5299989D02*
G01*
X2557515Y-5299989D01*
X2467518Y-4799990D02*
G01*
X2557515Y-4799990D01*
X2117506Y-4660011D02*
G01*
X2207503Y-4660011D01*
X2987522Y-5095003D02*
G01*
X2987522Y-5005003D01*
X3107502Y-5439994D02*
G01*
X3017504Y-5439994D01*
X3367516Y-5299989D02*
G01*
X3457514Y-5299989D01*
X3367516Y-4799990D02*
G01*
X3457514Y-4799990D01*
X3017504Y-4660011D02*
G01*
X3107502Y-4660011D01*
X3887520Y-5095003D02*
G01*
X3887520Y-5005003D01*
X4007500Y-5439994D02*
G01*
X3917502Y-5439994D01*
X4267514Y-5299989D02*
G01*
X4357512Y-5299989D01*
X4267514Y-4799990D02*
G01*
X4357512Y-4799990D01*
X3917502Y-4660011D02*
G01*
X4007500Y-4660011D01*
X4787518Y-5095003D02*
G01*
X4787518Y-5005003D01*
X4907498Y-5439994D02*
G01*
X4817501Y-5439994D01*
X5167513Y-5299989D02*
G01*
X5257510Y-5299989D01*
X5167513Y-4799990D02*
G01*
X5257510Y-4799990D01*
X4817501Y-4660011D02*
G01*
X4907498Y-4660011D01*
M02*
