M48
METRIC,LZ,000.000
;FILE_FORMAT=3:3
;TYPE=PLATED
;Layer: Drill PTH
;EasyEDA v6.4.25, 2022-04-08T13:20:52--5:00
;10
;Gerber Generator version 0.2
;Holesize 1 = 0.305 mm
T01C0.305
;Holesize 2 = 0.800 mm
T02C0.800
;Holesize 3 = 1.000 mm
T03C1.000
;Holesize 4 = 1.101 mm
T04C1.101
;Holesize 5 = 1.200 mm
T05C1.200
%
G05
G90
T01
X031220Y-016180
X033000Y-021300
X032000Y-017550
X030500Y-017547
X036700Y-031000
T02
X032950Y-033575G85X032050Y-033575
X028600Y-033875G85X028600Y-034775
X030000Y-038275G85X030000Y-037375
X035000Y-038275G85X035000Y-037375
X036400Y-034775G85X036400Y-033875
X049999Y-037000
X051501Y-037000
X013949Y-042620
X015451Y-042620
X005950Y-007875G85X005050Y-007875
X001600Y-008175G85X001600Y-009075
X003000Y-012575G85X003000Y-011675
X008000Y-012575G85X008000Y-011675
X009400Y-009075G85X009400Y-008175
X005950Y-016875G85X005050Y-016875
X001600Y-017175G85X001600Y-018075
X003000Y-021575G85X003000Y-020675
X008000Y-021575G85X008000Y-020675
X009400Y-018075G85X009400Y-017175
X005950Y-025875G85X005050Y-025875
X001600Y-026175G85X001600Y-027075
X003000Y-030575G85X003000Y-029675
X008000Y-030575G85X008000Y-029675
X009400Y-027075G85X009400Y-026175
X005950Y-034875G85X005050Y-034875
X001600Y-035175G85X001600Y-036075
X003000Y-039575G85X003000Y-038675
X008000Y-039575G85X008000Y-038675
X009400Y-036075G85X009400Y-035175
X005950Y-043875G85X005050Y-043875
X001600Y-044175G85X001600Y-045075
X003000Y-048575G85X003000Y-047675
X008000Y-048575G85X008000Y-047675
X009400Y-045075G85X009400Y-044175
X059950Y-007875G85X059050Y-007875
X055600Y-008175G85X055600Y-009075
X057000Y-012575G85X057000Y-011675
X062000Y-012575G85X062000Y-011675
X063400Y-009075G85X063400Y-008175
X059950Y-016875G85X059050Y-016875
X055600Y-017175G85X055600Y-018075
X057000Y-021575G85X057000Y-020675
X062000Y-021575G85X062000Y-020675
X063400Y-018075G85X063400Y-017175
X059950Y-025875G85X059050Y-025875
X055600Y-026175G85X055600Y-027075
X057000Y-030575G85X057000Y-029675
X062000Y-030575G85X062000Y-029675
X063400Y-027075G85X063400Y-026175
X059950Y-034875G85X059050Y-034875
X055600Y-035175G85X055600Y-036075
X057000Y-039575G85X057000Y-038675
X062000Y-039575G85X062000Y-038675
X063400Y-036075G85X063400Y-035175
X059950Y-043875G85X059050Y-043875
X055600Y-044175G85X055600Y-045075
X057000Y-048575G85X057000Y-047675
X062000Y-048575G85X062000Y-047675
X063400Y-045075G85X063400Y-044175
X011875Y-050050G85X011875Y-050950
X012175Y-054400G85X013075Y-054400
X016575Y-053000G85X015675Y-053000
X016575Y-048000G85X015675Y-048000
X013075Y-046600G85X012175Y-046600
X020875Y-050050G85X020875Y-050950
X021175Y-054400G85X022075Y-054400
X025575Y-053000G85X024675Y-053000
X025575Y-048000G85X024675Y-048000
X022075Y-046600G85X021175Y-046600
X029875Y-050050G85X029875Y-050950
X030175Y-054400G85X031075Y-054400
X034575Y-053000G85X033675Y-053000
X034575Y-048000G85X033675Y-048000
X031075Y-046600G85X030175Y-046600
X038875Y-050050G85X038875Y-050950
X039175Y-054400G85X040075Y-054400
X043575Y-053000G85X042675Y-053000
X043575Y-048000G85X042675Y-048000
X040075Y-046600G85X039175Y-046600
X047875Y-050050G85X047875Y-050950
X048175Y-054400G85X049075Y-054400
X052575Y-053000G85X051675Y-053000
X052575Y-048000G85X051675Y-048000
X049075Y-046600G85X048175Y-046600
T03
X013000Y-019270
X013000Y-008970
X052540Y-028610
X052540Y-018310
X042250Y-032100
X052550Y-032100
X013000Y-037990
X013000Y-027690
X039600Y-043450
X039600Y-033150
X024350Y-041800
X034650Y-041800
T04
X020690Y-011110
X020690Y-013650
X020690Y-021270
X020690Y-023810
X020690Y-016190
X020690Y-018730
X020690Y-026350
X020690Y-028890
X028310Y-028890
X028310Y-026350
X028310Y-023810
X028310Y-021270
X028310Y-018730
X028310Y-016190
X028310Y-013650
X028310Y-011110
X044310Y-028890
X044310Y-026350
X044310Y-018730
X044310Y-016190
X044310Y-023810
X044310Y-021270
X044310Y-013650
X044310Y-011110
X036690Y-011110
X036690Y-013650
X036690Y-016190
X036690Y-018730
X036690Y-021270
X036690Y-023810
X036690Y-026350
X036690Y-028890
T05
X056630Y-004770
X056630Y-002230
X054090Y-004770
X054090Y-002230
X051550Y-004770
X051550Y-002230
X049010Y-004770
X049010Y-002230
X046470Y-004770
X046470Y-002230
X043930Y-004770
X043930Y-002230
X041390Y-004770
X041390Y-002230
X038850Y-004770
X038850Y-002230
X036310Y-004770
X036310Y-002230
X033770Y-004770
X033770Y-002230
X031230Y-004770
X031230Y-002230
X028690Y-004770
X028690Y-002230
X026150Y-004770
X026150Y-002230
X023610Y-004770
X023610Y-002230
X021070Y-004770
X021070Y-002230
X018530Y-004770
X018530Y-002230
X015990Y-004770
X015990Y-002230
X013450Y-004770
X013450Y-002230
X010910Y-004770
X010910Y-002230
X008370Y-004770
X008370Y-002230
M30
