G04 Layer: BottomLayer*
G04 EasyEDA v6.4.0, 2020-07-14T23:16:01--5:00*
G04 6dc5d916f8a9456ea10d5ff2c879efc5,9df6f537d2f94b3ba0ed850023b5714d,10*
G04 Gerber Generator version 0.2*
G04 Scale: 100 percent, Rotated: No, Reflected: No *
G04 Dimensions in millimeters *
G04 leading zeros omitted , absolute positions ,3 integer and 3 decimal *
%FSLAX33Y33*%
%MOMM*%
G90*
G71D02*

%ADD10C,0.254000*%
%ADD12C,0.609600*%
%ADD13R,1.799996X1.799996*%
%ADD14C,1.799996*%
%ADD15C,1.199998*%
%ADD16C,1.524000*%
%ADD17C,1.599997*%

%LPD*%
G54D10*
G01X8369Y53769D02*
G01X9639Y52499D01*
G01X11674Y52500D01*
G01X12174Y52000D01*
G01X12174Y48875D01*
G01X12999Y48141D01*
G01X12999Y47031D01*
G01X59499Y21125D02*
G01X59499Y21250D01*
G01X58750Y21999D01*
G01X51501Y21999D01*
G01X50250Y23250D01*
G01X50250Y34000D01*
G01X46979Y37270D01*
G01X44310Y37270D01*
G01X59500Y12124D02*
G01X59500Y12250D01*
G01X58000Y13750D01*
G01X51499Y13750D01*
G01X48749Y16500D01*
G01X48749Y32500D01*
G01X46519Y34730D01*
G01X44310Y34730D01*
G01X38874Y5499D02*
G01X38874Y6124D01*
G01X46250Y13500D01*
G01X46250Y28750D01*
G01X45349Y29650D01*
G01X44310Y29650D01*
G01X47873Y5499D02*
G01X47500Y5499D01*
G01X45999Y7000D01*
G01X45999Y10749D01*
G01X47500Y12251D01*
G01X47500Y30749D01*
G01X46060Y32190D01*
G01X44310Y32190D01*
G01X59499Y30125D02*
G01X59499Y30249D01*
G01X57749Y31999D01*
G01X55250Y31999D01*
G01X47439Y39810D01*
G01X44310Y39810D01*
G01X59500Y39124D02*
G01X59500Y39250D01*
G01X57749Y41000D01*
G01X53750Y41000D01*
G01X52399Y42350D01*
G01X44310Y42350D01*
G01X59500Y48124D02*
G01X59500Y48250D01*
G01X58500Y49250D01*
G01X53750Y49250D01*
G01X49390Y44890D01*
G01X44310Y44890D01*
G01X33769Y51229D02*
G01X33779Y49700D01*
G01X30500Y46600D01*
G01X30500Y38452D01*
G01X31219Y39820D02*
G01X31219Y33500D01*
G01X29879Y32180D01*
G01X28310Y32190D01*
G01X36690Y39810D02*
G01X36680Y39820D01*
G01X31219Y39820D01*
G01X36309Y53769D02*
G01X37579Y52520D01*
G01X37579Y49400D01*
G01X39999Y47000D01*
G01X39999Y43500D01*
G01X38849Y42350D01*
G01X36690Y42350D01*
G01X30500Y38453D02*
G01X30499Y36680D01*
G01X28310Y34730D01*
G01X28310Y34730D01*
G01X31999Y38450D02*
G01X33179Y37270D01*
G01X36689Y37270D01*
G01X12999Y28310D02*
G01X12999Y25549D01*
G01X24349Y14200D01*
G01X12999Y36729D02*
G01X12999Y28308D01*
G01X36689Y34730D02*
G01X33030Y34730D01*
G01X33000Y34700D01*
G01X15450Y13381D02*
G01X23530Y13381D01*
G01X24350Y14199D01*
G54D13*
G01X20690Y44890D03*
G01X20690Y42350D03*
G01X20690Y34730D03*
G01X20690Y32190D03*
G01X20690Y39810D03*
G01X20690Y37270D03*
G01X20690Y29650D03*
G01X20690Y27110D03*
G01X28310Y27110D03*
G01X28310Y29650D03*
G01X28310Y32190D03*
G01X28310Y34730D03*
G01X28310Y37270D03*
G01X28310Y39810D03*
G01X28310Y42350D03*
G01X28310Y44890D03*
G01X44310Y27110D03*
G01X44310Y29650D03*
G01X44310Y37270D03*
G01X44310Y39810D03*
G01X44310Y32190D03*
G01X44310Y34730D03*
G01X44310Y42350D03*
G01X44310Y44890D03*
G01X36690Y44890D03*
G01X36690Y42350D03*
G01X36690Y39810D03*
G01X36690Y37270D03*
G01X36690Y34730D03*
G01X36690Y32190D03*
G01X36690Y29650D03*
G01X36690Y27110D03*
G36*
G01X57529Y52130D02*
G01X55729Y52130D01*
G01X55729Y50330D01*
G01X57529Y50330D01*
G01X57529Y52130D01*
G37*
G54D14*
G01X56630Y53769D03*
G01X54090Y51229D03*
G01X54090Y53769D03*
G01X51550Y51229D03*
G01X51550Y53769D03*
G01X49010Y51229D03*
G01X49010Y53769D03*
G01X46470Y51229D03*
G01X46470Y53769D03*
G01X43930Y51229D03*
G01X43930Y53769D03*
G01X41390Y51229D03*
G01X41390Y53769D03*
G01X38850Y51229D03*
G01X38850Y53769D03*
G01X36310Y51229D03*
G01X36310Y53769D03*
G01X33770Y51229D03*
G01X33770Y53769D03*
G01X31230Y51229D03*
G01X31230Y53769D03*
G01X28690Y51229D03*
G01X28690Y53769D03*
G01X26150Y51229D03*
G01X26150Y53769D03*
G01X23610Y51229D03*
G01X23610Y53769D03*
G01X21070Y51229D03*
G01X21070Y53769D03*
G01X18530Y51229D03*
G01X18530Y53769D03*
G01X15990Y51229D03*
G01X15990Y53769D03*
G01X13450Y51229D03*
G01X13450Y53769D03*
G01X10910Y51229D03*
G01X10910Y53769D03*
G01X8370Y51229D03*
G01X8370Y53769D03*
G54D15*
G01X49999Y19000D03*
G01X51500Y19000D03*
G54D16*
G01X12999Y36730D03*
G01X12999Y47030D03*
G01X52539Y27390D03*
G01X52539Y37690D03*
G01X42249Y23900D03*
G01X52550Y23900D03*
G01X12999Y18010D03*
G01X12999Y28310D03*
G54D15*
G01X13949Y13380D03*
G01X15450Y13380D03*
G54D16*
G01X39600Y12549D03*
G01X39600Y22850D03*
G01X24349Y14200D03*
G01X34650Y14200D03*
G54D12*
G01X31219Y39820D03*
G01X32999Y34700D03*
G01X31999Y38450D03*
G01X30500Y38452D03*
G01X36699Y25000D03*
G54D17*
G01X32050Y22424D02*
G01X32950Y22424D01*
G01X28600Y21225D02*
G01X28600Y22125D01*
G01X30000Y18624D02*
G01X30000Y17724D01*
G01X35000Y18624D02*
G01X35000Y17724D01*
G01X36399Y22125D02*
G01X36399Y21225D01*
G01X5050Y48124D02*
G01X5950Y48124D01*
G01X1600Y46924D02*
G01X1600Y47824D01*
G01X3000Y44324D02*
G01X3000Y43424D01*
G01X8000Y44324D02*
G01X8000Y43424D01*
G01X9400Y47824D02*
G01X9400Y46924D01*
G01X5050Y39124D02*
G01X5950Y39124D01*
G01X1600Y37924D02*
G01X1600Y38824D01*
G01X3000Y35324D02*
G01X3000Y34424D01*
G01X8000Y35324D02*
G01X8000Y34424D01*
G01X9400Y38824D02*
G01X9400Y37924D01*
G01X5050Y30124D02*
G01X5950Y30124D01*
G01X1600Y28925D02*
G01X1600Y29825D01*
G01X3000Y26324D02*
G01X3000Y25424D01*
G01X8000Y26324D02*
G01X8000Y25424D01*
G01X9400Y29825D02*
G01X9400Y28925D01*
G01X5050Y21124D02*
G01X5950Y21124D01*
G01X1600Y19925D02*
G01X1600Y20825D01*
G01X3000Y17324D02*
G01X3000Y16424D01*
G01X8000Y17324D02*
G01X8000Y16424D01*
G01X9400Y20825D02*
G01X9400Y19925D01*
G01X5050Y12124D02*
G01X5950Y12124D01*
G01X1600Y10925D02*
G01X1600Y11825D01*
G01X3000Y8324D02*
G01X3000Y7424D01*
G01X8000Y8324D02*
G01X8000Y7424D01*
G01X9400Y11825D02*
G01X9400Y10925D01*
G01X59050Y48124D02*
G01X59950Y48124D01*
G01X55600Y46924D02*
G01X55600Y47824D01*
G01X57000Y44324D02*
G01X57000Y43424D01*
G01X62000Y44324D02*
G01X62000Y43424D01*
G01X63399Y47824D02*
G01X63399Y46924D01*
G01X59050Y39124D02*
G01X59950Y39124D01*
G01X55600Y37924D02*
G01X55600Y38824D01*
G01X57000Y35324D02*
G01X57000Y34424D01*
G01X62000Y35324D02*
G01X62000Y34424D01*
G01X63399Y38824D02*
G01X63399Y37924D01*
G01X59050Y30124D02*
G01X59950Y30124D01*
G01X55600Y28925D02*
G01X55600Y29825D01*
G01X57000Y26324D02*
G01X57000Y25424D01*
G01X62000Y26324D02*
G01X62000Y25424D01*
G01X63399Y29825D02*
G01X63399Y28925D01*
G01X59050Y21124D02*
G01X59950Y21124D01*
G01X55600Y19925D02*
G01X55600Y20825D01*
G01X57000Y17324D02*
G01X57000Y16424D01*
G01X62000Y17324D02*
G01X62000Y16424D01*
G01X63399Y20825D02*
G01X63399Y19925D01*
G01X59050Y12124D02*
G01X59950Y12124D01*
G01X55600Y10925D02*
G01X55600Y11825D01*
G01X57000Y8324D02*
G01X57000Y7424D01*
G01X62000Y8324D02*
G01X62000Y7424D01*
G01X63399Y11825D02*
G01X63399Y10925D01*
G01X11875Y5050D02*
G01X11875Y5950D01*
G01X13075Y1600D02*
G01X12175Y1600D01*
G01X15675Y3000D02*
G01X16575Y3000D01*
G01X15675Y8000D02*
G01X16575Y8000D01*
G01X12175Y9399D02*
G01X13075Y9399D01*
G01X20875Y5050D02*
G01X20875Y5950D01*
G01X22075Y1600D02*
G01X21175Y1600D01*
G01X24675Y3000D02*
G01X25575Y3000D01*
G01X24675Y8000D02*
G01X25575Y8000D01*
G01X21175Y9399D02*
G01X22075Y9399D01*
G01X29875Y5050D02*
G01X29875Y5950D01*
G01X31075Y1600D02*
G01X30175Y1600D01*
G01X33675Y3000D02*
G01X34575Y3000D01*
G01X33675Y8000D02*
G01X34575Y8000D01*
G01X30175Y9399D02*
G01X31075Y9399D01*
G01X38875Y5050D02*
G01X38875Y5950D01*
G01X40075Y1600D02*
G01X39175Y1600D01*
G01X42675Y3000D02*
G01X43575Y3000D01*
G01X42675Y8000D02*
G01X43575Y8000D01*
G01X39175Y9399D02*
G01X40075Y9399D01*
G01X47875Y5050D02*
G01X47875Y5950D01*
G01X49074Y1600D02*
G01X48175Y1600D01*
G01X51675Y3000D02*
G01X52575Y3000D01*
G01X51675Y8000D02*
G01X52575Y8000D01*
G01X48175Y9399D02*
G01X49074Y9399D01*
M00*
M02*
