G04 Layer: BottomSolderMaskLayer*
G04 EasyEDA v6.4.25, 2022-04-08T13:20:52--5:00*
G04 Gerber Generator version 0.2*
G04 Scale: 100 percent, Rotated: No, Reflected: No *
G04 Dimensions in millimeters *
G04 leading zeros omitted , absolute positions ,4 integer and 5 decimal *
%FSLAX45Y45*%
%MOMM*%

%ADD19C,1.8032*%
%ADD21C,1.4032*%
%ADD22C,1.7272*%
%ADD23C,2.0032*%

%LPD*%
D19*
X3205007Y-3357524D02*
G01*
X3295007Y-3357524D01*
X2860014Y-3477503D02*
G01*
X2860014Y-3387506D01*
X3000019Y-3737518D02*
G01*
X3000019Y-3827515D01*
X3500018Y-3737518D02*
G01*
X3500018Y-3827515D01*
X3639997Y-3387506D02*
G01*
X3639997Y-3477503D01*
X505012Y-787527D02*
G01*
X595012Y-787527D01*
X160020Y-907508D02*
G01*
X160020Y-817509D01*
X300024Y-1167521D02*
G01*
X300024Y-1257520D01*
X800023Y-1167521D02*
G01*
X800023Y-1257520D01*
X940003Y-817509D02*
G01*
X940003Y-907508D01*
X505012Y-1687525D02*
G01*
X595012Y-1687525D01*
X160020Y-1807507D02*
G01*
X160020Y-1717507D01*
X300024Y-2067519D02*
G01*
X300024Y-2157519D01*
X800023Y-2067519D02*
G01*
X800023Y-2157519D01*
X940003Y-1717507D02*
G01*
X940003Y-1807507D01*
X505012Y-2587523D02*
G01*
X595012Y-2587523D01*
X160020Y-2707505D02*
G01*
X160020Y-2617505D01*
X300024Y-2967517D02*
G01*
X300024Y-3057517D01*
X800023Y-2967517D02*
G01*
X800023Y-3057517D01*
X940003Y-2617505D02*
G01*
X940003Y-2707505D01*
X505012Y-3487521D02*
G01*
X595012Y-3487521D01*
X160020Y-3607503D02*
G01*
X160020Y-3517503D01*
X300024Y-3867515D02*
G01*
X300024Y-3957515D01*
X800023Y-3867515D02*
G01*
X800023Y-3957515D01*
X940003Y-3517503D02*
G01*
X940003Y-3607503D01*
X505012Y-4387519D02*
G01*
X595012Y-4387519D01*
X160020Y-4507501D02*
G01*
X160020Y-4417501D01*
X300024Y-4767513D02*
G01*
X300024Y-4857513D01*
X800023Y-4767513D02*
G01*
X800023Y-4857513D01*
X940003Y-4417501D02*
G01*
X940003Y-4507501D01*
X5905002Y-787527D02*
G01*
X5995001Y-787527D01*
X5560009Y-907508D02*
G01*
X5560009Y-817509D01*
X5700013Y-1167521D02*
G01*
X5700013Y-1257520D01*
X6200013Y-1167521D02*
G01*
X6200013Y-1257520D01*
X6339992Y-817509D02*
G01*
X6339992Y-907508D01*
X5905002Y-1687525D02*
G01*
X5995001Y-1687525D01*
X5560009Y-1807507D02*
G01*
X5560009Y-1717507D01*
X5700013Y-2067519D02*
G01*
X5700013Y-2157519D01*
X6200013Y-2067519D02*
G01*
X6200013Y-2157519D01*
X6339992Y-1717507D02*
G01*
X6339992Y-1807507D01*
X5905002Y-2587523D02*
G01*
X5995001Y-2587523D01*
X5560009Y-2707505D02*
G01*
X5560009Y-2617505D01*
X5700013Y-2967517D02*
G01*
X5700013Y-3057517D01*
X6200013Y-2967517D02*
G01*
X6200013Y-3057517D01*
X6339992Y-2617505D02*
G01*
X6339992Y-2707505D01*
X5905002Y-3487521D02*
G01*
X5995001Y-3487521D01*
X5560009Y-3607503D02*
G01*
X5560009Y-3517503D01*
X5700013Y-3867515D02*
G01*
X5700013Y-3957515D01*
X6200013Y-3867515D02*
G01*
X6200013Y-3957515D01*
X6339992Y-3517503D02*
G01*
X6339992Y-3607503D01*
X5905002Y-4387519D02*
G01*
X5995001Y-4387519D01*
X5560009Y-4507501D02*
G01*
X5560009Y-4417501D01*
X5700013Y-4767513D02*
G01*
X5700013Y-4857513D01*
X6200013Y-4767513D02*
G01*
X6200013Y-4857513D01*
X6339992Y-4417501D02*
G01*
X6339992Y-4507501D01*
X1187526Y-5095003D02*
G01*
X1187526Y-5005003D01*
X1307505Y-5439994D02*
G01*
X1217508Y-5439994D01*
X1567520Y-5299989D02*
G01*
X1657517Y-5299989D01*
X1567520Y-4799990D02*
G01*
X1657517Y-4799990D01*
X1217508Y-4660011D02*
G01*
X1307505Y-4660011D01*
X2087524Y-5095003D02*
G01*
X2087524Y-5005003D01*
X2207503Y-5439994D02*
G01*
X2117506Y-5439994D01*
X2467518Y-5299989D02*
G01*
X2557515Y-5299989D01*
X2467518Y-4799990D02*
G01*
X2557515Y-4799990D01*
X2117506Y-4660011D02*
G01*
X2207503Y-4660011D01*
X2987522Y-5095003D02*
G01*
X2987522Y-5005003D01*
X3107502Y-5439994D02*
G01*
X3017504Y-5439994D01*
X3367516Y-5299989D02*
G01*
X3457514Y-5299989D01*
X3367516Y-4799990D02*
G01*
X3457514Y-4799990D01*
X3017504Y-4660011D02*
G01*
X3107502Y-4660011D01*
X3887520Y-5095003D02*
G01*
X3887520Y-5005003D01*
X4007500Y-5439994D02*
G01*
X3917502Y-5439994D01*
X4267514Y-5299989D02*
G01*
X4357512Y-5299989D01*
X4267514Y-4799990D02*
G01*
X4357512Y-4799990D01*
X3917502Y-4660011D02*
G01*
X4007500Y-4660011D01*
X4787518Y-5095003D02*
G01*
X4787518Y-5005003D01*
X4907498Y-5439994D02*
G01*
X4817501Y-5439994D01*
X5167513Y-5299989D02*
G01*
X5257510Y-5299989D01*
X5167513Y-4799990D02*
G01*
X5257510Y-4799990D01*
X4817501Y-4660011D02*
G01*
X4907498Y-4660011D01*
G36*
X1968754Y-1211071D02*
G01*
X1968754Y-1010920D01*
X2169159Y-1010920D01*
X2169159Y-1211071D01*
G37*
G36*
X1968754Y-1465071D02*
G01*
X1968754Y-1264920D01*
X2169159Y-1264920D01*
X2169159Y-1465071D01*
G37*
G36*
X1968754Y-2227071D02*
G01*
X1968754Y-2026920D01*
X2169159Y-2026920D01*
X2169159Y-2227071D01*
G37*
G36*
X1968754Y-2481071D02*
G01*
X1968754Y-2280920D01*
X2169159Y-2280920D01*
X2169159Y-2481071D01*
G37*
G36*
X1968754Y-1719071D02*
G01*
X1968754Y-1518920D01*
X2169159Y-1518920D01*
X2169159Y-1719071D01*
G37*
G36*
X1968754Y-1973071D02*
G01*
X1968754Y-1772920D01*
X2169159Y-1772920D01*
X2169159Y-1973071D01*
G37*
G36*
X1968754Y-2735071D02*
G01*
X1968754Y-2534920D01*
X2169159Y-2534920D01*
X2169159Y-2735071D01*
G37*
G36*
X1968754Y-2989072D02*
G01*
X1968754Y-2788920D01*
X2169159Y-2788920D01*
X2169159Y-2989072D01*
G37*
G36*
X2730754Y-2989072D02*
G01*
X2730754Y-2788920D01*
X2931159Y-2788920D01*
X2931159Y-2989072D01*
G37*
G36*
X2730754Y-2735071D02*
G01*
X2730754Y-2534920D01*
X2931159Y-2534920D01*
X2931159Y-2735071D01*
G37*
G36*
X2730754Y-2481071D02*
G01*
X2730754Y-2280920D01*
X2931159Y-2280920D01*
X2931159Y-2481071D01*
G37*
G36*
X2730754Y-2227071D02*
G01*
X2730754Y-2026920D01*
X2931159Y-2026920D01*
X2931159Y-2227071D01*
G37*
G36*
X2730754Y-1973071D02*
G01*
X2730754Y-1772920D01*
X2931159Y-1772920D01*
X2931159Y-1973071D01*
G37*
G36*
X2730754Y-1719071D02*
G01*
X2730754Y-1518920D01*
X2931159Y-1518920D01*
X2931159Y-1719071D01*
G37*
G36*
X2730754Y-1465071D02*
G01*
X2730754Y-1264920D01*
X2931159Y-1264920D01*
X2931159Y-1465071D01*
G37*
G36*
X2730754Y-1211071D02*
G01*
X2730754Y-1010920D01*
X2931159Y-1010920D01*
X2931159Y-1211071D01*
G37*
G36*
X4330954Y-2989072D02*
G01*
X4330954Y-2788920D01*
X4531106Y-2788920D01*
X4531106Y-2989072D01*
G37*
G36*
X4330954Y-2735071D02*
G01*
X4330954Y-2534920D01*
X4531106Y-2534920D01*
X4531106Y-2735071D01*
G37*
G36*
X4330954Y-1973071D02*
G01*
X4330954Y-1772920D01*
X4531106Y-1772920D01*
X4531106Y-1973071D01*
G37*
G36*
X4330954Y-1719071D02*
G01*
X4330954Y-1518920D01*
X4531106Y-1518920D01*
X4531106Y-1719071D01*
G37*
G36*
X4330954Y-2481071D02*
G01*
X4330954Y-2280920D01*
X4531106Y-2280920D01*
X4531106Y-2481071D01*
G37*
G36*
X4330954Y-2227071D02*
G01*
X4330954Y-2026920D01*
X4531106Y-2026920D01*
X4531106Y-2227071D01*
G37*
G36*
X4330954Y-1465071D02*
G01*
X4330954Y-1264920D01*
X4531106Y-1264920D01*
X4531106Y-1465071D01*
G37*
G36*
X4330954Y-1211071D02*
G01*
X4330954Y-1010920D01*
X4531106Y-1010920D01*
X4531106Y-1211071D01*
G37*
G36*
X3568954Y-1211071D02*
G01*
X3568954Y-1010920D01*
X3769106Y-1010920D01*
X3769106Y-1211071D01*
G37*
G36*
X3568954Y-1465071D02*
G01*
X3568954Y-1264920D01*
X3769106Y-1264920D01*
X3769106Y-1465071D01*
G37*
G36*
X3568954Y-1719071D02*
G01*
X3568954Y-1518920D01*
X3769106Y-1518920D01*
X3769106Y-1719071D01*
G37*
G36*
X3568954Y-1973071D02*
G01*
X3568954Y-1772920D01*
X3769106Y-1772920D01*
X3769106Y-1973071D01*
G37*
G36*
X3568954Y-2227071D02*
G01*
X3568954Y-2026920D01*
X3769106Y-2026920D01*
X3769106Y-2227071D01*
G37*
G36*
X3568954Y-2481071D02*
G01*
X3568954Y-2280920D01*
X3769106Y-2280920D01*
X3769106Y-2481071D01*
G37*
G36*
X3568954Y-2735071D02*
G01*
X3568954Y-2534920D01*
X3769106Y-2534920D01*
X3769106Y-2735071D01*
G37*
G36*
X3568954Y-2989072D02*
G01*
X3568954Y-2788920D01*
X3769106Y-2788920D01*
X3769106Y-2989072D01*
G37*
D21*
G01*
X4999939Y-3699992D03*
G01*
X5150053Y-3699992D03*
D22*
G01*
X1299997Y-1926996D03*
G01*
X1299997Y-896975D03*
G01*
X5253990Y-2861005D03*
G01*
X5253990Y-1830984D03*
G01*
X4224985Y-3210001D03*
G01*
X5255006Y-3210001D03*
G01*
X1299997Y-3799001D03*
G01*
X1299997Y-2768980D03*
D21*
G01*
X1394942Y-4261993D03*
G01*
X1545056Y-4261993D03*
D22*
G01*
X3960012Y-4345025D03*
G01*
X3960012Y-3314979D03*
G01*
X2434996Y-4180001D03*
G01*
X3465017Y-4180001D03*
G36*
X5562854Y-577087D02*
G01*
X5562854Y-376936D01*
X5763259Y-376936D01*
X5763259Y-577087D01*
G37*
D23*
G01*
X5663006Y-223012D03*
G01*
X5409006Y-477012D03*
G01*
X5409006Y-223012D03*
G01*
X5155006Y-477012D03*
G01*
X5155006Y-223012D03*
G01*
X4901006Y-477012D03*
G01*
X4901006Y-223012D03*
G01*
X4647006Y-477012D03*
G01*
X4647006Y-223012D03*
G01*
X4393006Y-477012D03*
G01*
X4393006Y-223012D03*
G01*
X4139006Y-477012D03*
G01*
X4139006Y-223012D03*
G01*
X3885006Y-477012D03*
G01*
X3885006Y-223012D03*
G01*
X3631006Y-477012D03*
G01*
X3631006Y-223012D03*
G01*
X3377006Y-477012D03*
G01*
X3377006Y-223012D03*
G01*
X3123006Y-477012D03*
G01*
X3123006Y-223012D03*
G01*
X2869006Y-477012D03*
G01*
X2869006Y-223012D03*
G01*
X2615006Y-477012D03*
G01*
X2615006Y-223012D03*
G01*
X2361006Y-477012D03*
G01*
X2361006Y-223012D03*
G01*
X2107006Y-477012D03*
G01*
X2107006Y-223012D03*
G01*
X1853006Y-477012D03*
G01*
X1853006Y-223012D03*
G01*
X1599006Y-477012D03*
G01*
X1599006Y-223012D03*
G01*
X1345006Y-477012D03*
G01*
X1345006Y-223012D03*
G01*
X1091006Y-477012D03*
G01*
X1091006Y-223012D03*
G01*
X837006Y-477012D03*
G01*
X837006Y-223012D03*
M02*
