G04 Layer: BottomSilkLayer*
G04 EasyEDA v6.4.25, 2022-04-08T13:20:52--5:00*
G04 Gerber Generator version 0.2*
G04 Scale: 100 percent, Rotated: No, Reflected: No *
G04 Dimensions in millimeters *
G04 leading zeros omitted , absolute positions ,4 integer and 5 decimal *
%FSLAX45Y45*%
%MOMM*%

%ADD10C,0.2540*%
%ADD18C,0.1524*%

%LPD*%
D18*
X2956062Y-674636D02*
G01*
X2961259Y-664245D01*
X2971650Y-653854D01*
X2982038Y-648660D01*
X3002821Y-648660D01*
X3013212Y-653854D01*
X3023603Y-664245D01*
X3028800Y-674636D01*
X3033994Y-690224D01*
X3033994Y-716201D01*
X3028800Y-731786D01*
X3023603Y-742177D01*
X3013212Y-752568D01*
X3002821Y-757763D01*
X2982038Y-757763D01*
X2971650Y-752568D01*
X2961259Y-742177D01*
X2956062Y-731786D01*
X2956062Y-716201D01*
X2982038Y-716201D02*
G01*
X2956062Y-716201D01*
X2921772Y-648660D02*
G01*
X2921772Y-757763D01*
X2921772Y-648660D02*
G01*
X2875013Y-648660D01*
X2859427Y-653854D01*
X2854231Y-659051D01*
X2849036Y-669442D01*
X2849036Y-685027D01*
X2854231Y-695418D01*
X2859427Y-700613D01*
X2875013Y-705810D01*
X2921772Y-705810D01*
X2814746Y-648660D02*
G01*
X2814746Y-757763D01*
X2749283Y-648660D02*
G01*
X2759674Y-653854D01*
X2770065Y-664245D01*
X2775259Y-674636D01*
X2780456Y-690224D01*
X2780456Y-716201D01*
X2775259Y-731786D01*
X2770065Y-742177D01*
X2759674Y-752568D01*
X2749283Y-757763D01*
X2728501Y-757763D01*
X2718109Y-752568D01*
X2707718Y-742177D01*
X2702524Y-731786D01*
X2697330Y-716201D01*
X2697330Y-690224D01*
X2702524Y-674636D01*
X2707718Y-664245D01*
X2718109Y-653854D01*
X2728501Y-648660D01*
X2749283Y-648660D01*
D10*
X5789998Y-603999D02*
G01*
X5789998Y-95999D01*
X709998Y-95999D01*
X709998Y-603999D01*
X5789998Y-603999D01*
X5789998Y-349999D02*
G01*
X5535998Y-349999D01*
X5535998Y-603999D01*
M02*
