G04 Layer: TopSilkLayer*
G04 EasyEDA v6.4.0, 2020-07-14T23:16:01--5:00*
G04 6dc5d916f8a9456ea10d5ff2c879efc5,9df6f537d2f94b3ba0ed850023b5714d,10*
G04 Gerber Generator version 0.2*
G04 Scale: 100 percent, Rotated: No, Reflected: No *
G04 Dimensions in millimeters *
G04 leading zeros omitted , absolute positions ,3 integer and 3 decimal *
%FSLAX33Y33*%
%MOMM*%
G90*
G71D02*

%ADD10C,0.254000*%
%ADD18C,0.152400*%

%LPD*%
G54D10*
G01X29580Y25840D02*
G01X29580Y46160D01*
G01X19420Y46160D02*
G01X19420Y25840D01*
G01X29580Y25840D02*
G01X27040Y25840D01*
G01X29580Y46160D02*
G01X27040Y46160D01*
G01X19420Y46160D02*
G01X21960Y46160D01*
G01X27040Y46160D02*
G01X27040Y25840D01*
G01X27040Y46160D02*
G01X25516Y46160D01*
G01X27040Y25840D02*
G01X21960Y25840D01*
G01X21960Y46160D02*
G01X21960Y25840D01*
G01X21960Y46160D02*
G01X23484Y46160D01*
G01X21960Y25840D02*
G01X19420Y25840D01*
G01X35419Y46160D02*
G01X35419Y25840D01*
G01X45579Y25840D02*
G01X45579Y46160D01*
G01X35419Y46160D02*
G01X37959Y46160D01*
G01X35419Y25840D02*
G01X37959Y25840D01*
G01X45579Y25840D02*
G01X43039Y25840D01*
G01X37959Y25840D02*
G01X37959Y46160D01*
G01X37959Y25840D02*
G01X39483Y25840D01*
G01X37959Y46160D02*
G01X43039Y46160D01*
G01X43039Y25840D02*
G01X43039Y46160D01*
G01X43039Y25840D02*
G01X41515Y25840D01*
G01X43039Y46160D02*
G01X45579Y46160D01*
G01X37500Y22975D02*
G01X37500Y16875D01*
G01X27499Y22975D02*
G01X27499Y16875D01*
G01X27499Y16875D02*
G01X29418Y16875D01*
G01X30581Y16875D02*
G01X31861Y16875D01*
G01X33138Y16875D02*
G01X34418Y16875D01*
G01X35581Y16875D02*
G01X37500Y16875D01*
G01X37500Y22975D02*
G01X36981Y22975D01*
G01X35818Y22975D02*
G01X33821Y22975D01*
G01X31178Y22975D02*
G01X29181Y22975D01*
G01X28018Y22975D02*
G01X27499Y22975D01*
G01X50950Y17800D02*
G01X51788Y17800D01*
G01X51356Y18181D02*
G01X51356Y17393D01*
G01X11799Y38730D02*
G01X11799Y45030D01*
G01X11799Y45030D02*
G01X14199Y45030D01*
G01X14199Y45030D02*
G01X14199Y38730D01*
G01X14199Y38730D02*
G01X11799Y38730D01*
G01X51339Y29390D02*
G01X51339Y35690D01*
G01X51339Y35690D02*
G01X53739Y35690D01*
G01X53739Y35690D02*
G01X53739Y29390D01*
G01X53739Y29390D02*
G01X51339Y29390D01*
G01X44250Y25100D02*
G01X50550Y25100D01*
G01X50550Y25100D02*
G01X50550Y22700D01*
G01X50550Y22700D02*
G01X44250Y22700D01*
G01X44250Y22700D02*
G01X44250Y25100D01*
G01X11799Y20010D02*
G01X11799Y26310D01*
G01X11799Y26310D02*
G01X14199Y26310D01*
G01X14199Y26310D02*
G01X14199Y20010D01*
G01X14199Y20010D02*
G01X11799Y20010D01*
G01X14899Y12180D02*
G01X15738Y12180D01*
G01X15306Y12561D02*
G01X15306Y11773D01*
G01X38400Y14550D02*
G01X38400Y20850D01*
G01X38400Y20850D02*
G01X40800Y20850D01*
G01X40800Y20850D02*
G01X40800Y14550D01*
G01X40800Y14550D02*
G01X38400Y14550D01*
G01X26350Y15400D02*
G01X32650Y15400D01*
G01X32650Y15400D02*
G01X32650Y13000D01*
G01X32650Y13000D02*
G01X26350Y13000D01*
G01X26350Y13000D02*
G01X26350Y15400D01*
G01X10500Y48675D02*
G01X10500Y42575D01*
G01X499Y48675D02*
G01X499Y42575D01*
G01X499Y42575D02*
G01X2418Y42575D01*
G01X3581Y42575D02*
G01X4861Y42575D01*
G01X6138Y42575D02*
G01X7418Y42575D01*
G01X8581Y42575D02*
G01X10500Y42575D01*
G01X10500Y48675D02*
G01X9981Y48675D01*
G01X8818Y48675D02*
G01X6821Y48675D01*
G01X4178Y48675D02*
G01X2181Y48675D01*
G01X1018Y48675D02*
G01X499Y48675D01*
G01X10500Y39675D02*
G01X10500Y33575D01*
G01X499Y39675D02*
G01X499Y33575D01*
G01X499Y33575D02*
G01X2418Y33575D01*
G01X3581Y33575D02*
G01X4861Y33575D01*
G01X6138Y33575D02*
G01X7418Y33575D01*
G01X8581Y33575D02*
G01X10500Y33575D01*
G01X10500Y39675D02*
G01X9981Y39675D01*
G01X8818Y39675D02*
G01X6821Y39675D01*
G01X4178Y39675D02*
G01X2181Y39675D01*
G01X1018Y39675D02*
G01X499Y39675D01*
G01X10500Y30675D02*
G01X10500Y24575D01*
G01X499Y30675D02*
G01X499Y24575D01*
G01X499Y24575D02*
G01X2418Y24575D01*
G01X3581Y24575D02*
G01X4861Y24575D01*
G01X6138Y24575D02*
G01X7418Y24575D01*
G01X8581Y24575D02*
G01X10500Y24575D01*
G01X10500Y30675D02*
G01X9981Y30675D01*
G01X8818Y30675D02*
G01X6821Y30675D01*
G01X4178Y30675D02*
G01X2181Y30675D01*
G01X1018Y30675D02*
G01X499Y30675D01*
G01X10500Y21675D02*
G01X10500Y15575D01*
G01X499Y21675D02*
G01X499Y15575D01*
G01X499Y15575D02*
G01X2418Y15575D01*
G01X3581Y15575D02*
G01X4861Y15575D01*
G01X6138Y15575D02*
G01X7418Y15575D01*
G01X8581Y15575D02*
G01X10500Y15575D01*
G01X10500Y21675D02*
G01X9981Y21675D01*
G01X8818Y21675D02*
G01X6821Y21675D01*
G01X4178Y21675D02*
G01X2181Y21675D01*
G01X1018Y21675D02*
G01X499Y21675D01*
G01X10500Y12675D02*
G01X10500Y6575D01*
G01X499Y12675D02*
G01X499Y6575D01*
G01X499Y6575D02*
G01X2418Y6575D01*
G01X3581Y6575D02*
G01X4861Y6575D01*
G01X6138Y6575D02*
G01X7418Y6575D01*
G01X8581Y6575D02*
G01X10500Y6575D01*
G01X10500Y12675D02*
G01X9981Y12675D01*
G01X8818Y12675D02*
G01X6821Y12675D01*
G01X4178Y12675D02*
G01X2181Y12675D01*
G01X1018Y12675D02*
G01X499Y12675D01*
G01X64500Y48675D02*
G01X64500Y42575D01*
G01X54499Y48675D02*
G01X54499Y42575D01*
G01X54499Y42575D02*
G01X56418Y42575D01*
G01X57581Y42575D02*
G01X58861Y42575D01*
G01X60138Y42575D02*
G01X61418Y42575D01*
G01X62581Y42575D02*
G01X64500Y42575D01*
G01X64500Y48675D02*
G01X63981Y48675D01*
G01X62818Y48675D02*
G01X60821Y48675D01*
G01X58178Y48675D02*
G01X56181Y48675D01*
G01X55018Y48675D02*
G01X54499Y48675D01*
G01X64500Y39675D02*
G01X64500Y33575D01*
G01X54499Y39675D02*
G01X54499Y33575D01*
G01X54499Y33575D02*
G01X56418Y33575D01*
G01X57581Y33575D02*
G01X58861Y33575D01*
G01X60138Y33575D02*
G01X61418Y33575D01*
G01X62581Y33575D02*
G01X64500Y33575D01*
G01X64500Y39675D02*
G01X63981Y39675D01*
G01X62818Y39675D02*
G01X60821Y39675D01*
G01X58178Y39675D02*
G01X56181Y39675D01*
G01X55018Y39675D02*
G01X54499Y39675D01*
G01X64500Y30675D02*
G01X64500Y24575D01*
G01X54499Y30675D02*
G01X54499Y24575D01*
G01X54499Y24575D02*
G01X56418Y24575D01*
G01X57581Y24575D02*
G01X58861Y24575D01*
G01X60138Y24575D02*
G01X61418Y24575D01*
G01X62581Y24575D02*
G01X64500Y24575D01*
G01X64500Y30675D02*
G01X63981Y30675D01*
G01X62818Y30675D02*
G01X60821Y30675D01*
G01X58178Y30675D02*
G01X56181Y30675D01*
G01X55018Y30675D02*
G01X54499Y30675D01*
G01X64500Y21675D02*
G01X64500Y15575D01*
G01X54499Y21675D02*
G01X54499Y15575D01*
G01X54499Y15575D02*
G01X56418Y15575D01*
G01X57581Y15575D02*
G01X58861Y15575D01*
G01X60138Y15575D02*
G01X61418Y15575D01*
G01X62581Y15575D02*
G01X64500Y15575D01*
G01X64500Y21675D02*
G01X63981Y21675D01*
G01X62818Y21675D02*
G01X60821Y21675D01*
G01X58178Y21675D02*
G01X56181Y21675D01*
G01X55018Y21675D02*
G01X54499Y21675D01*
G01X64500Y12675D02*
G01X64500Y6575D01*
G01X54499Y12675D02*
G01X54499Y6575D01*
G01X54499Y6575D02*
G01X56418Y6575D01*
G01X57581Y6575D02*
G01X58861Y6575D01*
G01X60138Y6575D02*
G01X61418Y6575D01*
G01X62581Y6575D02*
G01X64500Y6575D01*
G01X64500Y12675D02*
G01X63981Y12675D01*
G01X62818Y12675D02*
G01X60821Y12675D01*
G01X58178Y12675D02*
G01X56181Y12675D01*
G01X55018Y12675D02*
G01X54499Y12675D01*
G01X11324Y10500D02*
G01X17424Y10500D01*
G01X11324Y500D02*
G01X17424Y500D01*
G01X17424Y500D02*
G01X17424Y2418D01*
G01X17424Y3581D02*
G01X17424Y4861D01*
G01X17424Y6138D02*
G01X17424Y7418D01*
G01X17424Y8581D02*
G01X17424Y10500D01*
G01X11324Y10500D02*
G01X11324Y9981D01*
G01X11324Y8818D02*
G01X11324Y6821D01*
G01X11324Y4178D02*
G01X11324Y2181D01*
G01X11324Y1018D02*
G01X11324Y500D01*
G01X20325Y10500D02*
G01X26424Y10500D01*
G01X20325Y500D02*
G01X26424Y500D01*
G01X26424Y500D02*
G01X26424Y2418D01*
G01X26424Y3581D02*
G01X26424Y4861D01*
G01X26424Y6138D02*
G01X26424Y7418D01*
G01X26424Y8581D02*
G01X26424Y10500D01*
G01X20325Y10500D02*
G01X20325Y9981D01*
G01X20325Y8818D02*
G01X20325Y6821D01*
G01X20325Y4178D02*
G01X20325Y2181D01*
G01X20325Y1018D02*
G01X20325Y500D01*
G01X29325Y10500D02*
G01X35424Y10500D01*
G01X29325Y500D02*
G01X35424Y500D01*
G01X35424Y500D02*
G01X35424Y2418D01*
G01X35424Y3581D02*
G01X35424Y4861D01*
G01X35424Y6138D02*
G01X35424Y7418D01*
G01X35424Y8581D02*
G01X35424Y10500D01*
G01X29325Y10500D02*
G01X29325Y9981D01*
G01X29325Y8818D02*
G01X29325Y6821D01*
G01X29325Y4178D02*
G01X29325Y2181D01*
G01X29325Y1018D02*
G01X29325Y500D01*
G01X38324Y10500D02*
G01X44424Y10500D01*
G01X38324Y500D02*
G01X44424Y500D01*
G01X44424Y500D02*
G01X44424Y2418D01*
G01X44424Y3581D02*
G01X44424Y4861D01*
G01X44424Y6138D02*
G01X44424Y7418D01*
G01X44424Y8581D02*
G01X44424Y10500D01*
G01X38324Y10500D02*
G01X38324Y9981D01*
G01X38324Y8818D02*
G01X38324Y6821D01*
G01X38324Y4178D02*
G01X38324Y2181D01*
G01X38324Y1018D02*
G01X38324Y500D01*
G01X47325Y10500D02*
G01X53424Y10500D01*
G01X47325Y500D02*
G01X53424Y500D01*
G01X53424Y500D02*
G01X53424Y2418D01*
G01X53424Y3581D02*
G01X53424Y4861D01*
G01X53424Y6138D02*
G01X53424Y7418D01*
G01X53424Y8581D02*
G01X53424Y10500D01*
G01X47325Y10500D02*
G01X47325Y9981D01*
G01X47325Y8818D02*
G01X47325Y6821D01*
G01X47325Y4178D02*
G01X47325Y2181D01*
G01X47325Y1018D02*
G01X47325Y500D01*
G54D18*
G01X25227Y40826D02*
G01X24137Y40826D01*
G01X25227Y40826D02*
G01X24137Y40412D01*
G01X25227Y39995D02*
G01X24137Y40412D01*
G01X25227Y39995D02*
G01X24137Y39995D01*
G01X24968Y38872D02*
G01X25072Y38926D01*
G01X25176Y39030D01*
G01X25227Y39134D01*
G01X25227Y39340D01*
G01X25176Y39444D01*
G01X25072Y39548D01*
G01X24968Y39601D01*
G01X24811Y39652D01*
G01X24551Y39652D01*
G01X24397Y39601D01*
G01X24292Y39548D01*
G01X24188Y39444D01*
G01X24137Y39340D01*
G01X24137Y39134D01*
G01X24188Y39030D01*
G01X24292Y38926D01*
G01X24397Y38872D01*
G01X25227Y38529D02*
G01X24137Y38529D01*
G01X25227Y38529D02*
G01X25227Y38062D01*
G01X25176Y37907D01*
G01X25123Y37854D01*
G01X25019Y37803D01*
G01X24864Y37803D01*
G01X24760Y37854D01*
G01X24709Y37907D01*
G01X24656Y38062D01*
G01X24656Y38529D01*
G01X25227Y37356D02*
G01X25227Y36784D01*
G01X24811Y37097D01*
G01X24811Y36939D01*
G01X24760Y36835D01*
G01X24709Y36784D01*
G01X24551Y36734D01*
G01X24447Y36734D01*
G01X24292Y36784D01*
G01X24188Y36889D01*
G01X24137Y37043D01*
G01X24137Y37201D01*
G01X24188Y37356D01*
G01X24239Y37407D01*
G01X24343Y37460D01*
G01X25227Y36078D02*
G01X25176Y36233D01*
G01X25019Y36337D01*
G01X24760Y36391D01*
G01X24605Y36391D01*
G01X24343Y36337D01*
G01X24188Y36233D01*
G01X24137Y36078D01*
G01X24137Y35974D01*
G01X24188Y35819D01*
G01X24343Y35715D01*
G01X24605Y35662D01*
G01X24760Y35662D01*
G01X25019Y35715D01*
G01X25176Y35819D01*
G01X25227Y35974D01*
G01X25227Y36078D01*
G01X25227Y35006D02*
G01X25176Y35164D01*
G01X25019Y35268D01*
G01X24760Y35319D01*
G01X24605Y35319D01*
G01X24343Y35268D01*
G01X24188Y35164D01*
G01X24137Y35006D01*
G01X24137Y34905D01*
G01X24188Y34747D01*
G01X24343Y34643D01*
G01X24605Y34592D01*
G01X24760Y34592D01*
G01X25019Y34643D01*
G01X25176Y34747D01*
G01X25227Y34905D01*
G01X25227Y35006D01*
G01X25227Y33990D02*
G01X25176Y34145D01*
G01X25072Y34196D01*
G01X24968Y34196D01*
G01X24864Y34145D01*
G01X24811Y34041D01*
G01X24760Y33833D01*
G01X24709Y33678D01*
G01X24605Y33574D01*
G01X24501Y33521D01*
G01X24343Y33521D01*
G01X24239Y33574D01*
G01X24188Y33625D01*
G01X24137Y33782D01*
G01X24137Y33990D01*
G01X24188Y34145D01*
G01X24239Y34196D01*
G01X24343Y34249D01*
G01X24501Y34249D01*
G01X24605Y34196D01*
G01X24709Y34092D01*
G01X24760Y33937D01*
G01X24811Y33729D01*
G01X24864Y33625D01*
G01X24968Y33574D01*
G01X25072Y33574D01*
G01X25176Y33625D01*
G01X25227Y33782D01*
G01X25227Y33990D01*
G01X23772Y33178D02*
G01X23772Y32243D01*
G01X24968Y31849D02*
G01X25019Y31849D01*
G01X25123Y31796D01*
G01X25176Y31745D01*
G01X25227Y31641D01*
G01X25227Y31433D01*
G01X25176Y31328D01*
G01X25123Y31278D01*
G01X25019Y31224D01*
G01X24915Y31224D01*
G01X24811Y31278D01*
G01X24656Y31382D01*
G01X24137Y31900D01*
G01X24137Y31174D01*
G01X39772Y31407D02*
G01X40861Y31407D01*
G01X39772Y31407D02*
G01X40861Y31824D01*
G01X39772Y32238D02*
G01X40861Y31824D01*
G01X39772Y32238D02*
G01X40861Y32238D01*
G01X40031Y33360D02*
G01X39927Y33310D01*
G01X39823Y33206D01*
G01X39772Y33101D01*
G01X39772Y32893D01*
G01X39823Y32789D01*
G01X39927Y32685D01*
G01X40031Y32634D01*
G01X40188Y32581D01*
G01X40447Y32581D01*
G01X40602Y32634D01*
G01X40706Y32685D01*
G01X40811Y32789D01*
G01X40861Y32893D01*
G01X40861Y33101D01*
G01X40811Y33206D01*
G01X40706Y33310D01*
G01X40602Y33360D01*
G01X39772Y33703D02*
G01X40861Y33703D01*
G01X39772Y33703D02*
G01X39772Y34171D01*
G01X39823Y34326D01*
G01X39876Y34379D01*
G01X39980Y34430D01*
G01X40135Y34430D01*
G01X40239Y34379D01*
G01X40290Y34326D01*
G01X40343Y34171D01*
G01X40343Y33703D01*
G01X39772Y34877D02*
G01X39772Y35448D01*
G01X40188Y35138D01*
G01X40188Y35293D01*
G01X40239Y35398D01*
G01X40290Y35448D01*
G01X40447Y35502D01*
G01X40552Y35502D01*
G01X40706Y35448D01*
G01X40811Y35344D01*
G01X40861Y35189D01*
G01X40861Y35034D01*
G01X40811Y34877D01*
G01X40760Y34826D01*
G01X40656Y34773D01*
G01X39772Y36154D02*
G01X39823Y36000D01*
G01X39980Y35895D01*
G01X40239Y35845D01*
G01X40394Y35845D01*
G01X40656Y35895D01*
G01X40811Y36000D01*
G01X40861Y36154D01*
G01X40861Y36259D01*
G01X40811Y36416D01*
G01X40656Y36520D01*
G01X40394Y36571D01*
G01X40239Y36571D01*
G01X39980Y36520D01*
G01X39823Y36416D01*
G01X39772Y36259D01*
G01X39772Y36154D01*
G01X39772Y37226D02*
G01X39823Y37069D01*
G01X39980Y36967D01*
G01X40239Y36914D01*
G01X40394Y36914D01*
G01X40656Y36967D01*
G01X40811Y37069D01*
G01X40861Y37226D01*
G01X40861Y37331D01*
G01X40811Y37485D01*
G01X40656Y37590D01*
G01X40394Y37640D01*
G01X40239Y37640D01*
G01X39980Y37590D01*
G01X39823Y37485D01*
G01X39772Y37331D01*
G01X39772Y37226D01*
G01X39772Y38245D02*
G01X39823Y38087D01*
G01X39927Y38037D01*
G01X40031Y38037D01*
G01X40135Y38087D01*
G01X40188Y38192D01*
G01X40239Y38400D01*
G01X40290Y38555D01*
G01X40394Y38659D01*
G01X40498Y38712D01*
G01X40656Y38712D01*
G01X40760Y38659D01*
G01X40811Y38608D01*
G01X40861Y38453D01*
G01X40861Y38245D01*
G01X40811Y38087D01*
G01X40760Y38037D01*
G01X40656Y37983D01*
G01X40498Y37983D01*
G01X40394Y38037D01*
G01X40290Y38141D01*
G01X40239Y38296D01*
G01X40188Y38504D01*
G01X40135Y38608D01*
G01X40031Y38659D01*
G01X39927Y38659D01*
G01X39823Y38608D01*
G01X39772Y38453D01*
G01X39772Y38245D01*
G01X41227Y39055D02*
G01X41227Y39990D01*
G01X39980Y40333D02*
G01X39927Y40437D01*
G01X39772Y40592D01*
G01X40861Y40592D01*
G01X30079Y20826D02*
G01X30183Y20877D01*
G01X30340Y21034D01*
G01X30340Y19942D01*
G01X30734Y20773D02*
G01X30734Y20826D01*
G01X30785Y20930D01*
G01X30838Y20981D01*
G01X30942Y21034D01*
G01X31151Y21034D01*
G01X31255Y20981D01*
G01X31306Y20930D01*
G01X31356Y20826D01*
G01X31356Y20722D01*
G01X31306Y20618D01*
G01X31201Y20463D01*
G01X30683Y19942D01*
G01X31410Y19942D01*
G01X31753Y21034D02*
G01X32169Y19942D01*
G01X32583Y21034D02*
G01X32169Y19942D01*
G01X33343Y21034D02*
G01X32926Y19942D01*
G01X33343Y21034D02*
G01X33757Y19942D01*
G01X33084Y20305D02*
G01X33602Y20305D01*
G01X34879Y20773D02*
G01X34829Y20877D01*
G01X34724Y20981D01*
G01X34620Y21034D01*
G01X34412Y21034D01*
G01X34308Y20981D01*
G01X34204Y20877D01*
G01X34153Y20773D01*
G01X34100Y20618D01*
G01X34100Y20359D01*
G01X34153Y20201D01*
G01X34204Y20097D01*
G01X34308Y19993D01*
G01X34412Y19942D01*
G01X34620Y19942D01*
G01X34724Y19993D01*
G01X34829Y20097D01*
G01X34879Y20201D01*
G01X45787Y19286D02*
G01X45737Y19390D01*
G01X45632Y19495D01*
G01X45528Y19545D01*
G01X45320Y19545D01*
G01X45216Y19495D01*
G01X45112Y19390D01*
G01X45061Y19286D01*
G01X45008Y19131D01*
G01X45008Y18872D01*
G01X45061Y18715D01*
G01X45112Y18611D01*
G01X45216Y18507D01*
G01X45320Y18456D01*
G01X45528Y18456D01*
G01X45632Y18507D01*
G01X45737Y18611D01*
G01X45787Y18715D01*
G01X46181Y19286D02*
G01X46181Y19340D01*
G01X46234Y19444D01*
G01X46285Y19495D01*
G01X46389Y19545D01*
G01X46598Y19545D01*
G01X46702Y19495D01*
G01X46753Y19444D01*
G01X46806Y19340D01*
G01X46806Y19236D01*
G01X46753Y19131D01*
G01X46651Y18974D01*
G01X46130Y18456D01*
G01X46857Y18456D01*
G01X47512Y19545D02*
G01X47357Y19495D01*
G01X47253Y19340D01*
G01X47200Y19078D01*
G01X47200Y18923D01*
G01X47253Y18664D01*
G01X47357Y18507D01*
G01X47512Y18456D01*
G01X47616Y18456D01*
G01X47771Y18507D01*
G01X47875Y18664D01*
G01X47929Y18923D01*
G01X47929Y19078D01*
G01X47875Y19340D01*
G01X47771Y19495D01*
G01X47616Y19545D01*
G01X47512Y19545D01*
G01X14961Y38762D02*
G01X16051Y38762D01*
G01X14961Y38762D02*
G01X14961Y39232D01*
G01X15012Y39387D01*
G01X15063Y39437D01*
G01X15167Y39491D01*
G01X15271Y39491D01*
G01X15375Y39437D01*
G01X15429Y39387D01*
G01X15480Y39232D01*
G01X15480Y38762D01*
G01X15480Y39127D02*
G01X16051Y39491D01*
G01X14961Y39938D02*
G01X14961Y40509D01*
G01X15375Y40197D01*
G01X15375Y40352D01*
G01X15429Y40456D01*
G01X15480Y40509D01*
G01X15635Y40560D01*
G01X15739Y40560D01*
G01X15896Y40509D01*
G01X16000Y40405D01*
G01X16051Y40248D01*
G01X16051Y40093D01*
G01X16000Y39938D01*
G01X15947Y39884D01*
G01X15843Y39834D01*
G01X16414Y40903D02*
G01X16414Y41838D01*
G01X15116Y42805D02*
G01X15012Y42752D01*
G01X14961Y42597D01*
G01X14961Y42493D01*
G01X15012Y42338D01*
G01X15167Y42234D01*
G01X15429Y42181D01*
G01X15688Y42181D01*
G01X15896Y42234D01*
G01X16000Y42338D01*
G01X16051Y42493D01*
G01X16051Y42546D01*
G01X16000Y42701D01*
G01X15896Y42805D01*
G01X15739Y42856D01*
G01X15688Y42856D01*
G01X15533Y42805D01*
G01X15429Y42701D01*
G01X15375Y42546D01*
G01X15375Y42493D01*
G01X15429Y42338D01*
G01X15533Y42234D01*
G01X15688Y42181D01*
G01X14961Y43461D02*
G01X15012Y43303D01*
G01X15116Y43252D01*
G01X15221Y43252D01*
G01X15325Y43303D01*
G01X15375Y43407D01*
G01X15429Y43616D01*
G01X15480Y43771D01*
G01X15584Y43875D01*
G01X15688Y43928D01*
G01X15843Y43928D01*
G01X15947Y43875D01*
G01X16000Y43824D01*
G01X16051Y43666D01*
G01X16051Y43461D01*
G01X16000Y43303D01*
G01X15947Y43252D01*
G01X15843Y43199D01*
G01X15688Y43199D01*
G01X15584Y43252D01*
G01X15480Y43357D01*
G01X15429Y43512D01*
G01X15375Y43720D01*
G01X15325Y43824D01*
G01X15221Y43875D01*
G01X15116Y43875D01*
G01X15012Y43824D01*
G01X14961Y43666D01*
G01X14961Y43461D01*
G01X14961Y44271D02*
G01X16051Y44271D01*
G01X14961Y44997D02*
G01X15688Y44271D01*
G01X15429Y44530D02*
G01X16051Y44997D01*
G01X51812Y29630D02*
G01X52901Y29630D01*
G01X51812Y29630D02*
G01X51812Y30097D01*
G01X51862Y30252D01*
G01X51916Y30306D01*
G01X52020Y30356D01*
G01X52124Y30356D01*
G01X52226Y30306D01*
G01X52279Y30252D01*
G01X52330Y30097D01*
G01X52330Y29630D01*
G01X52330Y29993D02*
G01X52901Y30356D01*
G01X52071Y30750D02*
G01X52020Y30750D01*
G01X51916Y30804D01*
G01X51862Y30854D01*
G01X51812Y30958D01*
G01X51812Y31167D01*
G01X51862Y31271D01*
G01X51916Y31322D01*
G01X52020Y31375D01*
G01X52124Y31375D01*
G01X52226Y31322D01*
G01X52383Y31220D01*
G01X52901Y30699D01*
G01X52901Y31426D01*
G01X53267Y31769D02*
G01X53267Y32706D01*
G01X52020Y33049D02*
G01X51967Y33150D01*
G01X51812Y33308D01*
G01X52901Y33308D01*
G01X51812Y33963D02*
G01X51862Y33806D01*
G01X52020Y33702D01*
G01X52279Y33651D01*
G01X52434Y33651D01*
G01X52696Y33702D01*
G01X52851Y33806D01*
G01X52901Y33963D01*
G01X52901Y34065D01*
G01X52851Y34222D01*
G01X52696Y34326D01*
G01X52434Y34377D01*
G01X52279Y34377D01*
G01X52020Y34326D01*
G01X51862Y34222D01*
G01X51812Y34065D01*
G01X51812Y33963D01*
G01X51812Y34720D02*
G01X52901Y34720D01*
G01X51812Y35449D02*
G01X52538Y34720D01*
G01X52279Y34979D02*
G01X52901Y35449D01*
G01X44724Y24627D02*
G01X44724Y23535D01*
G01X44724Y24627D02*
G01X45191Y24627D01*
G01X45346Y24576D01*
G01X45399Y24523D01*
G01X45450Y24419D01*
G01X45450Y24315D01*
G01X45399Y24211D01*
G01X45346Y24160D01*
G01X45191Y24107D01*
G01X44724Y24107D01*
G01X45087Y24107D02*
G01X45450Y23535D01*
G01X45793Y24419D02*
G01X45897Y24472D01*
G01X46052Y24627D01*
G01X46052Y23535D01*
G01X46395Y23172D02*
G01X47332Y23172D01*
G01X47675Y24419D02*
G01X47779Y24472D01*
G01X47934Y24627D01*
G01X47934Y23535D01*
G01X48589Y24627D02*
G01X48432Y24576D01*
G01X48328Y24419D01*
G01X48277Y24160D01*
G01X48277Y24005D01*
G01X48328Y23743D01*
G01X48432Y23588D01*
G01X48589Y23535D01*
G01X48694Y23535D01*
G01X48849Y23588D01*
G01X48953Y23743D01*
G01X49003Y24005D01*
G01X49003Y24160D01*
G01X48953Y24419D01*
G01X48849Y24576D01*
G01X48694Y24627D01*
G01X48589Y24627D01*
G01X49346Y24627D02*
G01X49346Y23535D01*
G01X50075Y24627D02*
G01X49346Y23901D01*
G01X49608Y24160D02*
G01X50075Y23535D01*
G01X14960Y20042D02*
G01X16052Y20042D01*
G01X14960Y20042D02*
G01X14960Y20510D01*
G01X15014Y20667D01*
G01X15064Y20718D01*
G01X15169Y20771D01*
G01X15273Y20771D01*
G01X15377Y20718D01*
G01X15428Y20667D01*
G01X15481Y20510D01*
G01X15481Y20042D01*
G01X15481Y20406D02*
G01X16052Y20771D01*
G01X14960Y21633D02*
G01X15687Y21114D01*
G01X15687Y21892D01*
G01X14960Y21633D02*
G01X16052Y21633D01*
G01X16416Y22234D02*
G01X16416Y23172D01*
G01X14960Y23616D02*
G01X14960Y24188D01*
G01X15377Y23878D01*
G01X15377Y24033D01*
G01X15428Y24137D01*
G01X15481Y24188D01*
G01X15636Y24241D01*
G01X15740Y24241D01*
G01X15895Y24188D01*
G01X15999Y24086D01*
G01X16052Y23929D01*
G01X16052Y23774D01*
G01X15999Y23616D01*
G01X15948Y23565D01*
G01X15844Y23515D01*
G01X14960Y24688D02*
G01X14960Y25260D01*
G01X15377Y24947D01*
G01X15377Y25102D01*
G01X15428Y25206D01*
G01X15481Y25260D01*
G01X15636Y25310D01*
G01X15740Y25310D01*
G01X15895Y25260D01*
G01X15999Y25155D01*
G01X16052Y25001D01*
G01X16052Y24843D01*
G01X15999Y24688D01*
G01X15948Y24635D01*
G01X15844Y24584D01*
G01X14960Y25653D02*
G01X16052Y25653D01*
G01X14960Y26382D02*
G01X15687Y25653D01*
G01X15428Y25915D02*
G01X16052Y26382D01*
G01X18226Y13668D02*
G01X18173Y13769D01*
G01X18069Y13873D01*
G01X17964Y13927D01*
G01X17759Y13927D01*
G01X17655Y13873D01*
G01X17550Y13769D01*
G01X17497Y13668D01*
G01X17446Y13510D01*
G01X17446Y13251D01*
G01X17497Y13096D01*
G01X17550Y12992D01*
G01X17655Y12888D01*
G01X17759Y12834D01*
G01X17964Y12834D01*
G01X18069Y12888D01*
G01X18173Y12992D01*
G01X18226Y13096D01*
G01X18569Y13718D02*
G01X18673Y13769D01*
G01X18828Y13927D01*
G01X18828Y12834D01*
G01X19483Y13927D02*
G01X19326Y13873D01*
G01X19222Y13718D01*
G01X19171Y13459D01*
G01X19171Y13302D01*
G01X19222Y13043D01*
G01X19326Y12888D01*
G01X19483Y12834D01*
G01X19587Y12834D01*
G01X19742Y12888D01*
G01X19847Y13043D01*
G01X19897Y13302D01*
G01X19897Y13459D01*
G01X19847Y13718D01*
G01X19742Y13873D01*
G01X19587Y13927D01*
G01X19483Y13927D01*
G01X41561Y14230D02*
G01X42653Y14230D01*
G01X41561Y14230D02*
G01X41561Y14697D01*
G01X41611Y14852D01*
G01X41665Y14905D01*
G01X41769Y14956D01*
G01X41873Y14956D01*
G01X41977Y14905D01*
G01X42028Y14852D01*
G01X42081Y14697D01*
G01X42081Y14230D01*
G01X42081Y14593D02*
G01X42653Y14956D01*
G01X41561Y15924D02*
G01X41561Y15403D01*
G01X42028Y15352D01*
G01X41977Y15403D01*
G01X41924Y15558D01*
G01X41924Y15715D01*
G01X41977Y15870D01*
G01X42081Y15975D01*
G01X42236Y16025D01*
G01X42340Y16025D01*
G01X42495Y15975D01*
G01X42599Y15870D01*
G01X42653Y15715D01*
G01X42653Y15558D01*
G01X42599Y15403D01*
G01X42549Y15352D01*
G01X42445Y15299D01*
G01X43016Y16368D02*
G01X43016Y17306D01*
G01X41769Y17648D02*
G01X41716Y17753D01*
G01X41561Y17908D01*
G01X42653Y17908D01*
G01X41561Y18509D02*
G01X41611Y18355D01*
G01X41716Y18301D01*
G01X41820Y18301D01*
G01X41924Y18355D01*
G01X41977Y18459D01*
G01X42028Y18667D01*
G01X42081Y18822D01*
G01X42183Y18926D01*
G01X42287Y18977D01*
G01X42445Y18977D01*
G01X42549Y18926D01*
G01X42599Y18873D01*
G01X42653Y18718D01*
G01X42653Y18509D01*
G01X42599Y18355D01*
G01X42549Y18301D01*
G01X42445Y18250D01*
G01X42287Y18250D01*
G01X42183Y18301D01*
G01X42081Y18405D01*
G01X42028Y18563D01*
G01X41977Y18769D01*
G01X41924Y18873D01*
G01X41820Y18926D01*
G01X41716Y18926D01*
G01X41611Y18873D01*
G01X41561Y18718D01*
G01X41561Y18509D01*
G01X41561Y19632D02*
G01X41611Y19477D01*
G01X41769Y19373D01*
G01X42028Y19320D01*
G01X42183Y19320D01*
G01X42445Y19373D01*
G01X42599Y19477D01*
G01X42653Y19632D01*
G01X42653Y19736D01*
G01X42599Y19891D01*
G01X42445Y19995D01*
G01X42183Y20049D01*
G01X42028Y20049D01*
G01X41769Y19995D01*
G01X41611Y19891D01*
G01X41561Y19736D01*
G01X41561Y19632D01*
G01X41561Y20392D02*
G01X42653Y20392D01*
G01X41561Y21118D02*
G01X42287Y20392D01*
G01X42028Y20651D02*
G01X42653Y21118D01*
G01X26615Y14927D02*
G01X26615Y13835D01*
G01X26615Y14927D02*
G01X27083Y14927D01*
G01X27240Y14874D01*
G01X27291Y14823D01*
G01X27344Y14719D01*
G01X27344Y14615D01*
G01X27291Y14511D01*
G01X27240Y14457D01*
G01X27083Y14407D01*
G01X26615Y14407D01*
G01X26981Y14407D02*
G01X27344Y13835D01*
G01X28310Y14770D02*
G01X28259Y14874D01*
G01X28101Y14927D01*
G01X27997Y14927D01*
G01X27842Y14874D01*
G01X27738Y14719D01*
G01X27687Y14457D01*
G01X27687Y14198D01*
G01X27738Y13990D01*
G01X27842Y13886D01*
G01X27997Y13835D01*
G01X28050Y13835D01*
G01X28205Y13886D01*
G01X28310Y13990D01*
G01X28363Y14147D01*
G01X28363Y14198D01*
G01X28310Y14356D01*
G01X28205Y14457D01*
G01X28050Y14511D01*
G01X27997Y14511D01*
G01X27842Y14457D01*
G01X27738Y14356D01*
G01X27687Y14198D01*
G01X28706Y13472D02*
G01X29640Y13472D01*
G01X29983Y14719D02*
G01X30088Y14770D01*
G01X30242Y14927D01*
G01X30242Y13835D01*
G01X30639Y14666D02*
G01X30639Y14719D01*
G01X30690Y14823D01*
G01X30740Y14874D01*
G01X30844Y14927D01*
G01X31053Y14927D01*
G01X31157Y14874D01*
G01X31210Y14823D01*
G01X31261Y14719D01*
G01X31261Y14615D01*
G01X31210Y14511D01*
G01X31106Y14356D01*
G01X30585Y13835D01*
G01X31312Y13835D01*
G01X31655Y14927D02*
G01X31655Y13835D01*
G01X32384Y14927D02*
G01X31655Y14198D01*
G01X31916Y14457D02*
G01X32384Y13835D01*
G01X4978Y46294D02*
G01X4927Y46396D01*
G01X4823Y46500D01*
G01X4719Y46553D01*
G01X4510Y46553D01*
G01X4406Y46500D01*
G01X4305Y46396D01*
G01X4251Y46294D01*
G01X4201Y46137D01*
G01X4201Y45878D01*
G01X4251Y45723D01*
G01X4305Y45619D01*
G01X4406Y45515D01*
G01X4510Y45461D01*
G01X4719Y45461D01*
G01X4823Y45515D01*
G01X4927Y45619D01*
G01X4978Y45723D01*
G01X5686Y46553D02*
G01X5686Y45461D01*
G01X5321Y46553D02*
G01X6050Y46553D01*
G01X6393Y46345D02*
G01X6497Y46396D01*
G01X6652Y46553D01*
G01X6652Y45461D01*
G01X4744Y37293D02*
G01X4693Y37397D01*
G01X4589Y37501D01*
G01X4485Y37552D01*
G01X4277Y37552D01*
G01X4173Y37501D01*
G01X4071Y37397D01*
G01X4018Y37293D01*
G01X3967Y37138D01*
G01X3967Y36879D01*
G01X4018Y36722D01*
G01X4071Y36617D01*
G01X4173Y36513D01*
G01X4277Y36463D01*
G01X4485Y36463D01*
G01X4589Y36513D01*
G01X4693Y36617D01*
G01X4744Y36722D01*
G01X5453Y37552D02*
G01X5453Y36463D01*
G01X5087Y37552D02*
G01X5816Y37552D01*
G01X6210Y37293D02*
G01X6210Y37346D01*
G01X6263Y37451D01*
G01X6314Y37501D01*
G01X6418Y37552D01*
G01X6626Y37552D01*
G01X6730Y37501D01*
G01X6781Y37451D01*
G01X6834Y37346D01*
G01X6834Y37242D01*
G01X6781Y37138D01*
G01X6677Y36981D01*
G01X6159Y36463D01*
G01X6885Y36463D01*
G01X4744Y28293D02*
G01X4693Y28397D01*
G01X4589Y28501D01*
G01X4485Y28552D01*
G01X4277Y28552D01*
G01X4173Y28501D01*
G01X4071Y28397D01*
G01X4018Y28293D01*
G01X3967Y28138D01*
G01X3967Y27877D01*
G01X4018Y27722D01*
G01X4071Y27618D01*
G01X4173Y27513D01*
G01X4277Y27463D01*
G01X4485Y27463D01*
G01X4589Y27513D01*
G01X4693Y27618D01*
G01X4744Y27722D01*
G01X5453Y28552D02*
G01X5453Y27463D01*
G01X5087Y28552D02*
G01X5816Y28552D01*
G01X6263Y28552D02*
G01X6834Y28552D01*
G01X6522Y28138D01*
G01X6677Y28138D01*
G01X6781Y28085D01*
G01X6834Y28034D01*
G01X6885Y27877D01*
G01X6885Y27772D01*
G01X6834Y27618D01*
G01X6730Y27513D01*
G01X6573Y27463D01*
G01X6418Y27463D01*
G01X6263Y27513D01*
G01X6210Y27567D01*
G01X6159Y27668D01*
G01X4717Y19294D02*
G01X4667Y19399D01*
G01X4562Y19500D01*
G01X4458Y19553D01*
G01X4250Y19553D01*
G01X4146Y19500D01*
G01X4044Y19399D01*
G01X3991Y19294D01*
G01X3940Y19137D01*
G01X3940Y18878D01*
G01X3991Y18723D01*
G01X4044Y18619D01*
G01X4146Y18515D01*
G01X4250Y18461D01*
G01X4458Y18461D01*
G01X4562Y18515D01*
G01X4667Y18619D01*
G01X4717Y18723D01*
G01X5426Y19553D02*
G01X5426Y18461D01*
G01X5060Y19553D02*
G01X5789Y19553D01*
G01X6650Y19553D02*
G01X6132Y18827D01*
G01X6912Y18827D01*
G01X6650Y19553D02*
G01X6650Y18461D01*
G01X4744Y10292D02*
G01X4693Y10396D01*
G01X4589Y10500D01*
G01X4485Y10554D01*
G01X4277Y10554D01*
G01X4173Y10500D01*
G01X4071Y10396D01*
G01X4018Y10292D01*
G01X3967Y10137D01*
G01X3967Y9878D01*
G01X4018Y9720D01*
G01X4071Y9616D01*
G01X4173Y9512D01*
G01X4277Y9461D01*
G01X4485Y9461D01*
G01X4589Y9512D01*
G01X4693Y9616D01*
G01X4744Y9720D01*
G01X5453Y10554D02*
G01X5453Y9461D01*
G01X5087Y10554D02*
G01X5816Y10554D01*
G01X6781Y10554D02*
G01X6263Y10554D01*
G01X6210Y10084D01*
G01X6263Y10137D01*
G01X6418Y10188D01*
G01X6573Y10188D01*
G01X6730Y10137D01*
G01X6834Y10033D01*
G01X6885Y9878D01*
G01X6885Y9774D01*
G01X6834Y9616D01*
G01X6730Y9512D01*
G01X6573Y9461D01*
G01X6418Y9461D01*
G01X6263Y9512D01*
G01X6210Y9565D01*
G01X6159Y9670D01*
G01X58444Y46294D02*
G01X58394Y46396D01*
G01X58289Y46500D01*
G01X58185Y46553D01*
G01X57977Y46553D01*
G01X57873Y46500D01*
G01X57769Y46396D01*
G01X57718Y46294D01*
G01X57665Y46137D01*
G01X57665Y45878D01*
G01X57718Y45723D01*
G01X57769Y45619D01*
G01X57873Y45515D01*
G01X57977Y45461D01*
G01X58185Y45461D01*
G01X58289Y45515D01*
G01X58394Y45619D01*
G01X58444Y45723D01*
G01X59150Y46553D02*
G01X59150Y45461D01*
G01X58787Y46553D02*
G01X59516Y46553D01*
G01X59859Y46345D02*
G01X59961Y46396D01*
G01X60118Y46553D01*
G01X60118Y45461D01*
G01X61083Y46553D02*
G01X60565Y46553D01*
G01X60512Y46086D01*
G01X60565Y46137D01*
G01X60720Y46190D01*
G01X60875Y46190D01*
G01X61033Y46137D01*
G01X61137Y46033D01*
G01X61188Y45878D01*
G01X61188Y45774D01*
G01X61137Y45619D01*
G01X61033Y45515D01*
G01X60875Y45461D01*
G01X60720Y45461D01*
G01X60565Y45515D01*
G01X60512Y45565D01*
G01X60461Y45670D01*
G01X58418Y37293D02*
G01X58367Y37397D01*
G01X58263Y37501D01*
G01X58159Y37552D01*
G01X57950Y37552D01*
G01X57846Y37501D01*
G01X57742Y37397D01*
G01X57691Y37293D01*
G01X57638Y37138D01*
G01X57638Y36879D01*
G01X57691Y36722D01*
G01X57742Y36617D01*
G01X57846Y36513D01*
G01X57950Y36463D01*
G01X58159Y36463D01*
G01X58263Y36513D01*
G01X58367Y36617D01*
G01X58418Y36722D01*
G01X59124Y37552D02*
G01X59124Y36463D01*
G01X58761Y37552D02*
G01X59490Y37552D01*
G01X59832Y37346D02*
G01X59934Y37397D01*
G01X60092Y37552D01*
G01X60092Y36463D01*
G01X60953Y37552D02*
G01X60434Y36826D01*
G01X61214Y36826D01*
G01X60953Y37552D02*
G01X60953Y36463D01*
G01X58444Y28293D02*
G01X58394Y28397D01*
G01X58289Y28501D01*
G01X58185Y28552D01*
G01X57977Y28552D01*
G01X57873Y28501D01*
G01X57769Y28397D01*
G01X57718Y28293D01*
G01X57665Y28138D01*
G01X57665Y27877D01*
G01X57718Y27722D01*
G01X57769Y27618D01*
G01X57873Y27513D01*
G01X57977Y27463D01*
G01X58185Y27463D01*
G01X58289Y27513D01*
G01X58394Y27618D01*
G01X58444Y27722D01*
G01X59150Y28552D02*
G01X59150Y27463D01*
G01X58787Y28552D02*
G01X59516Y28552D01*
G01X59859Y28344D02*
G01X59961Y28397D01*
G01X60118Y28552D01*
G01X60118Y27463D01*
G01X60565Y28552D02*
G01X61137Y28552D01*
G01X60824Y28138D01*
G01X60979Y28138D01*
G01X61083Y28085D01*
G01X61137Y28034D01*
G01X61188Y27877D01*
G01X61188Y27772D01*
G01X61137Y27618D01*
G01X61033Y27513D01*
G01X60875Y27463D01*
G01X60720Y27463D01*
G01X60565Y27513D01*
G01X60512Y27567D01*
G01X60461Y27668D01*
G01X58444Y19294D02*
G01X58394Y19399D01*
G01X58289Y19500D01*
G01X58185Y19554D01*
G01X57977Y19554D01*
G01X57873Y19500D01*
G01X57769Y19399D01*
G01X57718Y19294D01*
G01X57665Y19137D01*
G01X57665Y18878D01*
G01X57718Y18723D01*
G01X57769Y18619D01*
G01X57873Y18515D01*
G01X57977Y18461D01*
G01X58185Y18461D01*
G01X58289Y18515D01*
G01X58394Y18619D01*
G01X58444Y18723D01*
G01X59150Y19554D02*
G01X59150Y18461D01*
G01X58787Y19554D02*
G01X59516Y19554D01*
G01X59859Y19345D02*
G01X59961Y19399D01*
G01X60118Y19554D01*
G01X60118Y18461D01*
G01X60512Y19294D02*
G01X60512Y19345D01*
G01X60565Y19449D01*
G01X60616Y19500D01*
G01X60720Y19554D01*
G01X60928Y19554D01*
G01X61033Y19500D01*
G01X61083Y19449D01*
G01X61137Y19345D01*
G01X61137Y19241D01*
G01X61083Y19137D01*
G01X60979Y18982D01*
G01X60461Y18461D01*
G01X61188Y18461D01*
G01X58678Y10292D02*
G01X58627Y10396D01*
G01X58523Y10500D01*
G01X58419Y10554D01*
G01X58211Y10554D01*
G01X58106Y10500D01*
G01X58002Y10396D01*
G01X57952Y10292D01*
G01X57898Y10137D01*
G01X57898Y9878D01*
G01X57952Y9720D01*
G01X58002Y9616D01*
G01X58106Y9515D01*
G01X58211Y9461D01*
G01X58419Y9461D01*
G01X58523Y9515D01*
G01X58627Y9616D01*
G01X58678Y9720D01*
G01X59384Y10554D02*
G01X59384Y9461D01*
G01X59021Y10554D02*
G01X59750Y10554D01*
G01X60093Y10345D02*
G01X60194Y10396D01*
G01X60352Y10554D01*
G01X60352Y9461D01*
G01X60695Y10345D02*
G01X60799Y10396D01*
G01X60954Y10554D01*
G01X60954Y9461D01*
G01X13706Y4979D02*
G01X13602Y4926D01*
G01X13498Y4824D01*
G01X13447Y4720D01*
G01X13447Y4512D01*
G01X13498Y4408D01*
G01X13602Y4304D01*
G01X13706Y4253D01*
G01X13861Y4200D01*
G01X14123Y4200D01*
G01X14278Y4253D01*
G01X14382Y4304D01*
G01X14486Y4408D01*
G01X14537Y4512D01*
G01X14537Y4720D01*
G01X14486Y4824D01*
G01X14382Y4926D01*
G01X14278Y4979D01*
G01X13447Y5685D02*
G01X14537Y5685D01*
G01X13447Y5322D02*
G01X13447Y6049D01*
G01X13602Y7016D02*
G01X13498Y6963D01*
G01X13447Y6808D01*
G01X13447Y6704D01*
G01X13498Y6549D01*
G01X13653Y6445D01*
G01X13915Y6392D01*
G01X14174Y6392D01*
G01X14382Y6445D01*
G01X14486Y6549D01*
G01X14537Y6704D01*
G01X14537Y6755D01*
G01X14486Y6912D01*
G01X14382Y7016D01*
G01X14224Y7067D01*
G01X14174Y7067D01*
G01X14019Y7016D01*
G01X13915Y6912D01*
G01X13861Y6755D01*
G01X13861Y6704D01*
G01X13915Y6549D01*
G01X14019Y6445D01*
G01X14174Y6392D01*
G01X22706Y4953D02*
G01X22602Y4902D01*
G01X22498Y4798D01*
G01X22447Y4694D01*
G01X22447Y4485D01*
G01X22498Y4381D01*
G01X22602Y4277D01*
G01X22706Y4226D01*
G01X22861Y4173D01*
G01X23123Y4173D01*
G01X23278Y4226D01*
G01X23382Y4277D01*
G01X23486Y4381D01*
G01X23537Y4485D01*
G01X23537Y4694D01*
G01X23486Y4798D01*
G01X23382Y4902D01*
G01X23278Y4953D01*
G01X22447Y5659D02*
G01X23537Y5659D01*
G01X22447Y5296D02*
G01X22447Y6025D01*
G01X22447Y7094D02*
G01X23537Y6573D01*
G01X22447Y6367D02*
G01X22447Y7094D01*
G01X31706Y4954D02*
G01X31602Y4901D01*
G01X31498Y4796D01*
G01X31447Y4692D01*
G01X31447Y4484D01*
G01X31498Y4382D01*
G01X31602Y4278D01*
G01X31706Y4225D01*
G01X31861Y4174D01*
G01X32123Y4174D01*
G01X32278Y4225D01*
G01X32382Y4278D01*
G01X32486Y4382D01*
G01X32537Y4484D01*
G01X32537Y4692D01*
G01X32486Y4796D01*
G01X32382Y4901D01*
G01X32278Y4954D01*
G01X31447Y5660D02*
G01X32537Y5660D01*
G01X31447Y5297D02*
G01X31447Y6023D01*
G01X31447Y6625D02*
G01X31498Y6470D01*
G01X31602Y6417D01*
G01X31706Y6417D01*
G01X31810Y6470D01*
G01X31861Y6574D01*
G01X31915Y6783D01*
G01X31965Y6938D01*
G01X32069Y7042D01*
G01X32174Y7093D01*
G01X32329Y7093D01*
G01X32433Y7042D01*
G01X32486Y6988D01*
G01X32537Y6834D01*
G01X32537Y6625D01*
G01X32486Y6470D01*
G01X32433Y6417D01*
G01X32329Y6366D01*
G01X32174Y6366D01*
G01X32069Y6417D01*
G01X31965Y6521D01*
G01X31915Y6679D01*
G01X31861Y6884D01*
G01X31810Y6988D01*
G01X31706Y7042D01*
G01X31602Y7042D01*
G01X31498Y6988D01*
G01X31447Y6834D01*
G01X31447Y6625D01*
G01X40706Y4979D02*
G01X40602Y4926D01*
G01X40498Y4822D01*
G01X40447Y4720D01*
G01X40447Y4512D01*
G01X40498Y4408D01*
G01X40602Y4304D01*
G01X40706Y4250D01*
G01X40861Y4200D01*
G01X41123Y4200D01*
G01X41278Y4250D01*
G01X41382Y4304D01*
G01X41486Y4408D01*
G01X41537Y4512D01*
G01X41537Y4720D01*
G01X41486Y4822D01*
G01X41382Y4926D01*
G01X41278Y4979D01*
G01X40447Y5685D02*
G01X41537Y5685D01*
G01X40447Y5322D02*
G01X40447Y6049D01*
G01X40810Y7067D02*
G01X40965Y7016D01*
G01X41069Y6912D01*
G01X41123Y6755D01*
G01X41123Y6704D01*
G01X41069Y6549D01*
G01X40965Y6445D01*
G01X40810Y6392D01*
G01X40757Y6392D01*
G01X40602Y6445D01*
G01X40498Y6549D01*
G01X40447Y6704D01*
G01X40447Y6755D01*
G01X40498Y6912D01*
G01X40602Y7016D01*
G01X40810Y7067D01*
G01X41069Y7067D01*
G01X41329Y7016D01*
G01X41486Y6912D01*
G01X41537Y6755D01*
G01X41537Y6651D01*
G01X41486Y6496D01*
G01X41382Y6445D01*
G01X49706Y4652D02*
G01X49602Y4601D01*
G01X49498Y4497D01*
G01X49447Y4393D01*
G01X49447Y4184D01*
G01X49498Y4080D01*
G01X49602Y3976D01*
G01X49706Y3925D01*
G01X49861Y3872D01*
G01X50123Y3872D01*
G01X50278Y3925D01*
G01X50382Y3976D01*
G01X50486Y4080D01*
G01X50537Y4184D01*
G01X50537Y4393D01*
G01X50486Y4497D01*
G01X50382Y4601D01*
G01X50278Y4652D01*
G01X49447Y5358D02*
G01X50537Y5358D01*
G01X49447Y4995D02*
G01X49447Y5721D01*
G01X49653Y6064D02*
G01X49602Y6168D01*
G01X49447Y6325D01*
G01X50537Y6325D01*
G01X49447Y6978D02*
G01X49498Y6823D01*
G01X49653Y6719D01*
G01X49915Y6668D01*
G01X50070Y6668D01*
G01X50329Y6719D01*
G01X50486Y6823D01*
G01X50537Y6978D01*
G01X50537Y7082D01*
G01X50486Y7240D01*
G01X50329Y7344D01*
G01X50070Y7395D01*
G01X49915Y7395D01*
G01X49653Y7344D01*
G01X49498Y7240D01*
G01X49447Y7082D01*
G01X49447Y6978D01*
G54D10*
G75*
G01X25516Y46160D02*
G02X23484Y46160I-1016J0D01*
G01*
G75*
G01X39484Y25840D02*
G02X41516Y25840I1016J0D01*
G01*
G75*
G01X50751Y17001D02*
G03X50718Y17001I-16J2000D01*
G01*
G75*
G01X14701Y11381D02*
G03X14668Y11381I-16J2000D01*
G01*

%LPD*%
G36*
G01X49150Y17800D02*
G01X49150Y20199D01*
G01X49110Y20153D01*
G01X49071Y20106D01*
G01X49034Y20057D01*
G01X48999Y20007D01*
G01X48966Y19956D01*
G01X48934Y19903D01*
G01X48904Y19850D01*
G01X48876Y19796D01*
G01X48850Y19741D01*
G01X48826Y19684D01*
G01X48804Y19628D01*
G01X48783Y19570D01*
G01X48765Y19512D01*
G01X48749Y19453D01*
G01X48734Y19393D01*
G01X48722Y19334D01*
G01X48711Y19273D01*
G01X48703Y19213D01*
G01X48697Y19152D01*
G01X48693Y19091D01*
G01X48691Y19030D01*
G01X48691Y18969D01*
G01X48693Y18908D01*
G01X48697Y18847D01*
G01X48703Y18786D01*
G01X48711Y18726D01*
G01X48722Y18665D01*
G01X48734Y18606D01*
G01X48749Y18546D01*
G01X48765Y18487D01*
G01X48783Y18429D01*
G01X48804Y18371D01*
G01X48826Y18315D01*
G01X48850Y18258D01*
G01X48876Y18203D01*
G01X48904Y18149D01*
G01X48934Y18096D01*
G01X48966Y18043D01*
G01X48999Y17992D01*
G01X49034Y17942D01*
G01X49071Y17893D01*
G01X49110Y17846D01*
G01X49150Y17800D01*
G37*

%LPD*%
G36*
G01X13099Y12180D02*
G01X13100Y14580D01*
G01X13060Y14533D01*
G01X13021Y14486D01*
G01X12984Y14437D01*
G01X12949Y14387D01*
G01X12916Y14336D01*
G01X12884Y14284D01*
G01X12854Y14230D01*
G01X12826Y14176D01*
G01X12800Y14121D01*
G01X12776Y14065D01*
G01X12754Y14008D01*
G01X12733Y13950D01*
G01X12715Y13892D01*
G01X12699Y13833D01*
G01X12684Y13774D01*
G01X12672Y13714D01*
G01X12661Y13654D01*
G01X12653Y13593D01*
G01X12647Y13532D01*
G01X12643Y13471D01*
G01X12641Y13410D01*
G01X12641Y13349D01*
G01X12643Y13288D01*
G01X12647Y13227D01*
G01X12653Y13166D01*
G01X12661Y13106D01*
G01X12672Y13045D01*
G01X12684Y12986D01*
G01X12698Y12926D01*
G01X12715Y12867D01*
G01X12733Y12809D01*
G01X12754Y12752D01*
G01X12776Y12695D01*
G01X12800Y12639D01*
G01X12826Y12583D01*
G01X12854Y12529D01*
G01X12884Y12476D01*
G01X12916Y12423D01*
G01X12949Y12372D01*
G01X12984Y12322D01*
G01X13021Y12273D01*
G01X13059Y12226D01*
G01X13099Y12180D01*
G37*
M00*
M02*
