G04 Layer: TopSolderMaskLayer*
G04 EasyEDA v6.4.0, 2020-07-14T23:16:01--5:00*
G04 6dc5d916f8a9456ea10d5ff2c879efc5,9df6f537d2f94b3ba0ed850023b5714d,10*
G04 Gerber Generator version 0.2*
G04 Scale: 100 percent, Rotated: No, Reflected: No *
G04 Dimensions in millimeters *
G04 leading zeros omitted , absolute positions ,3 integer and 3 decimal *
%FSLAX33Y33*%
%MOMM*%
G90*
G71D02*

%ADD19C,1.803197*%
%ADD21C,2.003196*%
%ADD22C,1.403198*%
%ADD23C,1.727200*%

%LPD*%
G54D19*
G01X32050Y22424D02*
G01X32950Y22424D01*
G01X28600Y21225D02*
G01X28600Y22125D01*
G01X30000Y18624D02*
G01X30000Y17724D01*
G01X35000Y18624D02*
G01X35000Y17724D01*
G01X36399Y22125D02*
G01X36399Y21225D01*
G01X5050Y48124D02*
G01X5950Y48124D01*
G01X1600Y46924D02*
G01X1600Y47824D01*
G01X3000Y44324D02*
G01X3000Y43424D01*
G01X8000Y44324D02*
G01X8000Y43424D01*
G01X9400Y47824D02*
G01X9400Y46924D01*
G01X5050Y39124D02*
G01X5950Y39124D01*
G01X1600Y37924D02*
G01X1600Y38824D01*
G01X3000Y35324D02*
G01X3000Y34424D01*
G01X8000Y35324D02*
G01X8000Y34424D01*
G01X9400Y38824D02*
G01X9400Y37924D01*
G01X5050Y30124D02*
G01X5950Y30124D01*
G01X1600Y28925D02*
G01X1600Y29825D01*
G01X3000Y26324D02*
G01X3000Y25424D01*
G01X8000Y26324D02*
G01X8000Y25424D01*
G01X9400Y29825D02*
G01X9400Y28925D01*
G01X5050Y21124D02*
G01X5950Y21124D01*
G01X1600Y19925D02*
G01X1600Y20825D01*
G01X3000Y17324D02*
G01X3000Y16424D01*
G01X8000Y17324D02*
G01X8000Y16424D01*
G01X9400Y20825D02*
G01X9400Y19925D01*
G01X5050Y12124D02*
G01X5950Y12124D01*
G01X1600Y10925D02*
G01X1600Y11825D01*
G01X3000Y8324D02*
G01X3000Y7424D01*
G01X8000Y8324D02*
G01X8000Y7424D01*
G01X9400Y11825D02*
G01X9400Y10925D01*
G01X59050Y48124D02*
G01X59950Y48124D01*
G01X55600Y46924D02*
G01X55600Y47824D01*
G01X57000Y44324D02*
G01X57000Y43424D01*
G01X62000Y44324D02*
G01X62000Y43424D01*
G01X63399Y47824D02*
G01X63399Y46924D01*
G01X59050Y39124D02*
G01X59950Y39124D01*
G01X55600Y37924D02*
G01X55600Y38824D01*
G01X57000Y35324D02*
G01X57000Y34424D01*
G01X62000Y35324D02*
G01X62000Y34424D01*
G01X63399Y38824D02*
G01X63399Y37924D01*
G01X59050Y30124D02*
G01X59950Y30124D01*
G01X55600Y28925D02*
G01X55600Y29825D01*
G01X57000Y26324D02*
G01X57000Y25424D01*
G01X62000Y26324D02*
G01X62000Y25424D01*
G01X63399Y29825D02*
G01X63399Y28925D01*
G01X59050Y21124D02*
G01X59950Y21124D01*
G01X55600Y19925D02*
G01X55600Y20825D01*
G01X57000Y17324D02*
G01X57000Y16424D01*
G01X62000Y17324D02*
G01X62000Y16424D01*
G01X63399Y20825D02*
G01X63399Y19925D01*
G01X59050Y12124D02*
G01X59950Y12124D01*
G01X55600Y10925D02*
G01X55600Y11825D01*
G01X57000Y8324D02*
G01X57000Y7424D01*
G01X62000Y8324D02*
G01X62000Y7424D01*
G01X63399Y11825D02*
G01X63399Y10925D01*
G01X11875Y5050D02*
G01X11875Y5950D01*
G01X13075Y1600D02*
G01X12175Y1600D01*
G01X15675Y3000D02*
G01X16575Y3000D01*
G01X15675Y8000D02*
G01X16575Y8000D01*
G01X12175Y9399D02*
G01X13075Y9399D01*
G01X20875Y5050D02*
G01X20875Y5950D01*
G01X22075Y1600D02*
G01X21175Y1600D01*
G01X24675Y3000D02*
G01X25575Y3000D01*
G01X24675Y8000D02*
G01X25575Y8000D01*
G01X21175Y9399D02*
G01X22075Y9399D01*
G01X29875Y5050D02*
G01X29875Y5950D01*
G01X31075Y1600D02*
G01X30175Y1600D01*
G01X33675Y3000D02*
G01X34575Y3000D01*
G01X33675Y8000D02*
G01X34575Y8000D01*
G01X30175Y9399D02*
G01X31075Y9399D01*
G01X38875Y5050D02*
G01X38875Y5950D01*
G01X40075Y1600D02*
G01X39175Y1600D01*
G01X42675Y3000D02*
G01X43575Y3000D01*
G01X42675Y8000D02*
G01X43575Y8000D01*
G01X39175Y9399D02*
G01X40075Y9399D01*
G01X47875Y5050D02*
G01X47875Y5950D01*
G01X49074Y1600D02*
G01X48175Y1600D01*
G01X51675Y3000D02*
G01X52575Y3000D01*
G01X51675Y8000D02*
G01X52575Y8000D01*
G01X48175Y9399D02*
G01X49074Y9399D01*
G36*
G01X19687Y43889D02*
G01X19687Y45890D01*
G01X21691Y45890D01*
G01X21691Y43889D01*
G01X19687Y43889D01*
G37*
G36*
G01X19687Y41349D02*
G01X19687Y43350D01*
G01X21691Y43350D01*
G01X21691Y41349D01*
G01X19687Y41349D01*
G37*
G36*
G01X19687Y33729D02*
G01X19687Y35730D01*
G01X21691Y35730D01*
G01X21691Y33729D01*
G01X19687Y33729D01*
G37*
G36*
G01X19687Y31189D02*
G01X19687Y33190D01*
G01X21691Y33190D01*
G01X21691Y31189D01*
G01X19687Y31189D01*
G37*
G36*
G01X19687Y38809D02*
G01X19687Y40810D01*
G01X21691Y40810D01*
G01X21691Y38809D01*
G01X19687Y38809D01*
G37*
G36*
G01X19687Y36269D02*
G01X19687Y38270D01*
G01X21691Y38270D01*
G01X21691Y36269D01*
G01X19687Y36269D01*
G37*
G36*
G01X19687Y28649D02*
G01X19687Y30650D01*
G01X21691Y30650D01*
G01X21691Y28649D01*
G01X19687Y28649D01*
G37*
G36*
G01X19687Y26109D02*
G01X19687Y28110D01*
G01X21691Y28110D01*
G01X21691Y26109D01*
G01X19687Y26109D01*
G37*
G36*
G01X27307Y26109D02*
G01X27307Y28110D01*
G01X29311Y28110D01*
G01X29311Y26109D01*
G01X27307Y26109D01*
G37*
G36*
G01X27307Y28649D02*
G01X27307Y30650D01*
G01X29311Y30650D01*
G01X29311Y28649D01*
G01X27307Y28649D01*
G37*
G36*
G01X27307Y31189D02*
G01X27307Y33190D01*
G01X29311Y33190D01*
G01X29311Y31189D01*
G01X27307Y31189D01*
G37*
G36*
G01X27307Y33729D02*
G01X27307Y35730D01*
G01X29311Y35730D01*
G01X29311Y33729D01*
G01X27307Y33729D01*
G37*
G36*
G01X27307Y36269D02*
G01X27307Y38270D01*
G01X29311Y38270D01*
G01X29311Y36269D01*
G01X27307Y36269D01*
G37*
G36*
G01X27307Y38809D02*
G01X27307Y40810D01*
G01X29311Y40810D01*
G01X29311Y38809D01*
G01X27307Y38809D01*
G37*
G36*
G01X27307Y41349D02*
G01X27307Y43350D01*
G01X29311Y43350D01*
G01X29311Y41349D01*
G01X27307Y41349D01*
G37*
G36*
G01X27307Y43889D02*
G01X27307Y45890D01*
G01X29311Y45890D01*
G01X29311Y43889D01*
G01X27307Y43889D01*
G37*
G36*
G01X43309Y26109D02*
G01X43309Y28110D01*
G01X45311Y28110D01*
G01X45311Y26109D01*
G01X43309Y26109D01*
G37*
G36*
G01X43309Y28649D02*
G01X43309Y30650D01*
G01X45311Y30650D01*
G01X45311Y28649D01*
G01X43309Y28649D01*
G37*
G36*
G01X43309Y36269D02*
G01X43309Y38270D01*
G01X45311Y38270D01*
G01X45311Y36269D01*
G01X43309Y36269D01*
G37*
G36*
G01X43309Y38809D02*
G01X43309Y40810D01*
G01X45311Y40810D01*
G01X45311Y38809D01*
G01X43309Y38809D01*
G37*
G36*
G01X43309Y31189D02*
G01X43309Y33190D01*
G01X45311Y33190D01*
G01X45311Y31189D01*
G01X43309Y31189D01*
G37*
G36*
G01X43309Y33729D02*
G01X43309Y35730D01*
G01X45311Y35730D01*
G01X45311Y33729D01*
G01X43309Y33729D01*
G37*
G36*
G01X43309Y41349D02*
G01X43309Y43350D01*
G01X45311Y43350D01*
G01X45311Y41349D01*
G01X43309Y41349D01*
G37*
G36*
G01X43309Y43889D02*
G01X43309Y45890D01*
G01X45311Y45890D01*
G01X45311Y43889D01*
G01X43309Y43889D01*
G37*
G36*
G01X35689Y43889D02*
G01X35689Y45890D01*
G01X37691Y45890D01*
G01X37691Y43889D01*
G01X35689Y43889D01*
G37*
G36*
G01X35689Y41349D02*
G01X35689Y43350D01*
G01X37691Y43350D01*
G01X37691Y41349D01*
G01X35689Y41349D01*
G37*
G36*
G01X35689Y38809D02*
G01X35689Y40810D01*
G01X37691Y40810D01*
G01X37691Y38809D01*
G01X35689Y38809D01*
G37*
G36*
G01X35689Y36269D02*
G01X35689Y38270D01*
G01X37691Y38270D01*
G01X37691Y36269D01*
G01X35689Y36269D01*
G37*
G36*
G01X35689Y33729D02*
G01X35689Y35730D01*
G01X37691Y35730D01*
G01X37691Y33729D01*
G01X35689Y33729D01*
G37*
G36*
G01X35689Y31189D02*
G01X35689Y33190D01*
G01X37691Y33190D01*
G01X37691Y31189D01*
G01X35689Y31189D01*
G37*
G36*
G01X35689Y28649D02*
G01X35689Y30650D01*
G01X37691Y30650D01*
G01X37691Y28649D01*
G01X35689Y28649D01*
G37*
G36*
G01X35689Y26109D02*
G01X35689Y28110D01*
G01X37691Y28110D01*
G01X37691Y26109D01*
G01X35689Y26109D01*
G37*
G36*
G01X55628Y50229D02*
G01X55628Y52230D01*
G01X57632Y52230D01*
G01X57632Y50229D01*
G01X55628Y50229D01*
G37*
G54D21*
G01X56630Y53769D03*
G01X54090Y51229D03*
G01X54090Y53769D03*
G01X51550Y51229D03*
G01X51550Y53769D03*
G01X49010Y51229D03*
G01X49010Y53769D03*
G01X46470Y51229D03*
G01X46470Y53769D03*
G01X43930Y51229D03*
G01X43930Y53769D03*
G01X41390Y51229D03*
G01X41390Y53769D03*
G01X38850Y51229D03*
G01X38850Y53769D03*
G01X36310Y51229D03*
G01X36310Y53769D03*
G01X33770Y51229D03*
G01X33770Y53769D03*
G01X31230Y51229D03*
G01X31230Y53769D03*
G01X28690Y51229D03*
G01X28690Y53769D03*
G01X26150Y51229D03*
G01X26150Y53769D03*
G01X23610Y51229D03*
G01X23610Y53769D03*
G01X21070Y51229D03*
G01X21070Y53769D03*
G01X18530Y51229D03*
G01X18530Y53769D03*
G01X15990Y51229D03*
G01X15990Y53769D03*
G01X13450Y51229D03*
G01X13450Y53769D03*
G01X10910Y51229D03*
G01X10910Y53769D03*
G01X8370Y51229D03*
G01X8370Y53769D03*
G54D22*
G01X49999Y19000D03*
G01X51500Y19000D03*
G54D23*
G01X12999Y36730D03*
G01X12999Y47030D03*
G01X52539Y27390D03*
G01X52539Y37690D03*
G01X42249Y23900D03*
G01X52550Y23900D03*
G01X12999Y18010D03*
G01X12999Y28310D03*
G54D22*
G01X13949Y13380D03*
G01X15450Y13380D03*
G54D23*
G01X39600Y12549D03*
G01X39600Y22850D03*
G01X24349Y14200D03*
G01X34650Y14200D03*
M00*
M02*
