;Layer: Drill PTH
;EasyEDA v6.4.0, 2020-07-14T23:16:01--5:00
;6dc5d916f8a9456ea10d5ff2c879efc5,9df6f537d2f94b3ba0ed850023b5714d,10
;Gerber Generator version 0.2
M48
METRIC,LZ,000.000
;Holesize 1 = 0.305 METRIC
T01C0.305
;Holesize 2 = 0.800 METRIC
T02C0.800
;Holesize 3 = 1.000 METRIC
T03C1.000
;Holesize 4 = 1.101 METRIC
T04C1.101
;Holesize 5 = 1.200 METRIC
T05C1.200
%
G05
G90
T01
X+031219Y+039820
X+032999Y+034700
X+031999Y+038450
X+030500Y+038452
X+036699Y+025000
T02
X+032950Y+022425G85X+032049Y+022425
X+028600Y+022125G85X+028600Y+021225
X+030000Y+017725G85X+030000Y+018625
X+035000Y+017725G85X+035000Y+018625
X+036400Y+021225G85X+036400Y+022125
X+049999Y+019000
X+051500Y+019000
X+013949Y+013380
X+015450Y+013380
X+005950Y+048125G85X+005049Y+048125
X+001599Y+047825G85X+001599Y+046925
X+002999Y+043425G85X+002999Y+044325
X+007999Y+043425G85X+007999Y+044325
X+009399Y+046925G85X+009399Y+047825
X+005950Y+039125G85X+005049Y+039125
X+001599Y+038825G85X+001599Y+037925
X+002999Y+034425G85X+002999Y+035325
X+007999Y+034425G85X+007999Y+035325
X+009399Y+037925G85X+009399Y+038825
X+005950Y+030125G85X+005049Y+030125
X+001599Y+029825G85X+001599Y+028925
X+002999Y+025425G85X+002999Y+026325
X+007999Y+025425G85X+007999Y+026325
X+009399Y+028925G85X+009399Y+029825
X+005950Y+021125G85X+005049Y+021125
X+001599Y+020825G85X+001599Y+019925
X+002999Y+016425G85X+002999Y+017325
X+007999Y+016425G85X+007999Y+017325
X+009399Y+019925G85X+009399Y+020825
X+005950Y+012125G85X+005049Y+012125
X+001599Y+011825G85X+001599Y+010925
X+002999Y+007425G85X+002999Y+008325
X+007999Y+007425G85X+007999Y+008325
X+009399Y+010925G85X+009399Y+011825
X+059950Y+048125G85X+059049Y+048125
X+055600Y+047825G85X+055600Y+046925
X+057000Y+043425G85X+057000Y+044325
X+062000Y+043425G85X+062000Y+044325
X+063400Y+046925G85X+063400Y+047825
X+059950Y+039125G85X+059049Y+039125
X+055600Y+038825G85X+055600Y+037925
X+057000Y+034425G85X+057000Y+035325
X+062000Y+034425G85X+062000Y+035325
X+063400Y+037925G85X+063400Y+038825
X+059950Y+030125G85X+059049Y+030125
X+055600Y+029825G85X+055600Y+028925
X+057000Y+025425G85X+057000Y+026325
X+062000Y+025425G85X+062000Y+026325
X+063400Y+028925G85X+063400Y+029825
X+059950Y+021125G85X+059049Y+021125
X+055600Y+020825G85X+055600Y+019925
X+057000Y+016425G85X+057000Y+017325
X+062000Y+016425G85X+062000Y+017325
X+063400Y+019925G85X+063400Y+020825
X+059950Y+012125G85X+059049Y+012125
X+055600Y+011825G85X+055600Y+010925
X+057000Y+007425G85X+057000Y+008325
X+062000Y+007425G85X+062000Y+008325
X+063400Y+010925G85X+063400Y+011825
X+011874Y+005950G85X+011874Y+005050
X+012174Y+001600G85X+013074Y+001600
X+016574Y+003000G85X+015674Y+003000
X+016574Y+008000G85X+015674Y+008000
X+013074Y+009400G85X+012174Y+009400
X+020874Y+005950G85X+020874Y+005050
X+021174Y+001600G85X+022074Y+001600
X+025575Y+003000G85X+024674Y+003000
X+025575Y+008000G85X+024674Y+008000
X+022074Y+009400G85X+021174Y+009400
X+029874Y+005950G85X+029874Y+005050
X+030174Y+001600G85X+031074Y+001600
X+034575Y+003000G85X+033674Y+003000
X+034575Y+008000G85X+033674Y+008000
X+031074Y+009400G85X+030174Y+009400
X+038874Y+005950G85X+038874Y+005050
X+039174Y+001600G85X+040074Y+001600
X+043574Y+003000G85X+042674Y+003000
X+043574Y+008000G85X+042674Y+008000
X+040074Y+009400G85X+039174Y+009400
X+047874Y+005950G85X+047874Y+005050
X+048174Y+001600G85X+049074Y+001600
X+052575Y+003000G85X+051674Y+003000
X+052575Y+008000G85X+051674Y+008000
X+049074Y+009400G85X+048174Y+009400
T03
X+012999Y+036730
X+012999Y+047030
X+052539Y+027390
X+052539Y+037690
X+042250Y+023900
X+052550Y+023900
X+012999Y+018010
X+012999Y+028310
X+039600Y+012550
X+039600Y+022850
X+024350Y+014200
X+034650Y+014200
T04
X+020690Y+044890
X+020690Y+042350
X+020690Y+034730
X+020690Y+032190
X+020690Y+039810
X+020690Y+037270
X+020690Y+029650
X+020690Y+027110
X+028310Y+027110
X+028310Y+029650
X+028310Y+032190
X+028310Y+034730
X+028310Y+037270
X+028310Y+039810
X+028310Y+042350
X+028310Y+044890
X+044309Y+027110
X+044309Y+029650
X+044309Y+037270
X+044309Y+039810
X+044309Y+032190
X+044309Y+034730
X+044309Y+042350
X+044309Y+044890
X+036689Y+044890
X+036689Y+042350
X+036689Y+039810
X+036689Y+037270
X+036689Y+034730
X+036689Y+032190
X+036689Y+029650
X+036689Y+027110
T05
X+056630Y+051230
X+056630Y+053770
X+054090Y+051230
X+054090Y+053770
X+051550Y+051230
X+051550Y+053770
X+049010Y+051230
X+049010Y+053770
X+046470Y+051230
X+046470Y+053770
X+043930Y+051230
X+043930Y+053770
X+041390Y+051230
X+041390Y+053770
X+038850Y+051230
X+038850Y+053770
X+036310Y+051230
X+036310Y+053770
X+033770Y+051230
X+033770Y+053770
X+031230Y+051230
X+031230Y+053770
X+028690Y+051230
X+028690Y+053770
X+026150Y+051230
X+026150Y+053770
X+023610Y+051230
X+023610Y+053770
X+021070Y+051230
X+021070Y+053770
X+018530Y+051230
X+018530Y+053770
X+015990Y+051230
X+015990Y+053770
X+013450Y+051230
X+013450Y+053770
X+010910Y+051230
X+010910Y+053770
X+008370Y+051230
X+008370Y+053770
M30
